<?xml version="1.0" encoding="UTF-8" standalone="no"?>
<!-- Created with Inkscape (http://www.inkscape.org/) -->

<svg
   xmlns:dc="http://purl.org/dc/elements/1.1/"
   xmlns:cc="http://creativecommons.org/ns#"
   xmlns:rdf="http://www.w3.org/1999/02/22-rdf-syntax-ns#"
   xmlns:svg="http://www.w3.org/2000/svg"
   xmlns="http://www.w3.org/2000/svg"
   xmlns:sodipodi="http://sodipodi.sourceforge.net/DTD/sodipodi-0.dtd"
   xmlns:inkscape="http://www.inkscape.org/namespaces/inkscape"
   width="138mm"
   height="25.692249mm"
   viewBox="0 0 138 25.692249"
   version="1.1"
   id="svg44257"
   inkscape:version="0.92.5 (2060ec1f9f, 2020-04-08)"
   sodipodi:docname="ICCL-final-tight.svg">
  <defs
     id="defs44251" />
  <sodipodi:namedview
     id="base"
     pagecolor="#ffffff"
     bordercolor="#666666"
     borderopacity="1.0"
     inkscape:pageopacity="0.0"
     inkscape:pageshadow="2"
     inkscape:zoom="1.4"
     inkscape:cx="108.07963"
     inkscape:cy="-76.185463"
     inkscape:document-units="mm"
     inkscape:current-layer="layer1"
     showgrid="false"
     fit-margin-top="0"
     fit-margin-left="0"
     fit-margin-right="0"
     fit-margin-bottom="0"
     inkscape:window-width="3200"
     inkscape:window-height="1659"
     inkscape:window-x="0"
     inkscape:window-y="0"
     inkscape:window-maximized="1" />
  <metadata
     id="metadata44254">
    <rdf:RDF>
      <cc:Work
         rdf:about="">
        <dc:format>image/svg+xml</dc:format>
        <dc:type
           rdf:resource="http://purl.org/dc/dcmitype/StillImage" />
        <dc:title></dc:title>
      </cc:Work>
    </rdf:RDF>
  </metadata>
  <g
     inkscape:label="Layer 1"
     inkscape:groupmode="layer"
     id="layer1"
     transform="translate(-14.807842,-19.840365)">
    <path
       inkscape:connector-curvature="0"
       style="opacity:1;fill:#becad9;fill-opacity:1;stroke:none;stroke-width:0.097233;stroke-miterlimit:4;stroke-dasharray:none;stroke-dashoffset:0;stroke-opacity:1;paint-order:markers fill stroke"
       d="m 22.332852,32.68468 9.08222,3.76558 -3.76557,9.082231 -9.08223,-3.765581 z"
       id="path43986" />
    <path
       inkscape:connector-curvature="0"
       style="opacity:1;fill:#a9e1cd;fill-opacity:1;stroke:none;stroke-width:0.097233;stroke-miterlimit:4;stroke-dasharray:none;stroke-dashoffset:0;stroke-opacity:1;paint-order:markers fill stroke"
       d="m 31.417602,28.92525 9.08223,3.76558 -3.765569,9.08222 -9.082231,-3.76557 z"
       id="path43984" />
    <path
       inkscape:connector-curvature="0"
       style="opacity:1;fill:#daeea0;fill-opacity:1;stroke:none;stroke-width:0.097233;stroke-miterlimit:4;stroke-dasharray:none;stroke-dashoffset:0;stroke-opacity:1;paint-order:markers fill stroke"
       d="m 27.658172,19.840489 9.082229,3.765571 -3.765568,9.08222 -9.082231,-3.76557 z"
       id="path43982" />
    <path
       inkscape:connector-curvature="0"
       style="opacity:1;fill:#a9e1cd;fill-opacity:1;stroke:none;stroke-width:0.097233;stroke-miterlimit:4;stroke-dasharray:none;stroke-dashoffset:0;stroke-opacity:1;paint-order:markers fill stroke"
       d="m 18.573422,23.59991 9.08223,3.76558 -3.76558,9.08223 -9.08223,-3.76558 z"
       id="path43980" />
    <path
       inkscape:connector-curvature="0"
       style="opacity:1;fill:#94dbdd;fill-opacity:1;stroke:none;stroke-width:0.097233;stroke-miterlimit:4;stroke-dasharray:none;stroke-dashoffset:0;stroke-opacity:1;paint-order:markers fill stroke"
       d="m 23.890202,36.4476 9.084631,-3.75932 3.759578,9.084649 -9.084769,3.75943 z"
       id="path43978" />
    <path
       inkscape:connector-curvature="0"
       style="opacity:1;fill:#c9eab6;fill-opacity:1;stroke:none;stroke-width:0.097233;stroke-miterlimit:4;stroke-dasharray:none;stroke-dashoffset:0;stroke-opacity:1;paint-order:markers fill stroke"
       d="m 27.655822,27.36534 9.084759,-3.75944 3.759452,9.08476 -9.084781,3.75945 z"
       id="path43976" />
    <path
       inkscape:connector-curvature="0"
       style="opacity:1;fill:#a9e1cd;fill-opacity:1;stroke:none;stroke-width:0.097233;stroke-miterlimit:4;stroke-dasharray:none;stroke-dashoffset:0;stroke-opacity:1;paint-order:markers fill stroke"
       d="m 18.573552,23.59982 9.08477,-3.759451 3.75944,9.084771 -9.08477,3.75944 z"
       id="path43974" />
    <path
       inkscape:connector-curvature="0"
       style="opacity:1;fill:#94dbdd;fill-opacity:1;stroke:none;stroke-width:0.097233;stroke-miterlimit:4;stroke-dasharray:none;stroke-dashoffset:0;stroke-opacity:1;paint-order:markers fill stroke"
       d="m 14.807932,32.68206 9.08476,-3.75945 3.75944,9.08477 -9.08477,3.75944 z"
       id="rect3907-9" />
    <path
       inkscape:connector-curvature="0"
       id="path44019"
       d="m 14.807852,32.682 9.08214,3.76566 1.55961,-3.76205 -1.55702,-3.76307 z"
       style="opacity:1;fill:#62cac0;fill-opacity:1;stroke:none;stroke-width:0.097233;stroke-miterlimit:4;stroke-dasharray:none;stroke-dashoffset:0;stroke-opacity:1;paint-order:markers fill stroke" />
    <path
       inkscape:connector-curvature="0"
       style="opacity:1;fill:#94d796;fill-opacity:1;stroke:none;stroke-width:0.097233;stroke-miterlimit:4;stroke-dasharray:none;stroke-dashoffset:0;stroke-opacity:1;paint-order:markers fill stroke"
       d="m 27.658412,19.840399 -3.76566,9.082141 3.76205,1.55961 3.76307,-1.55702 z"
       id="path43988" />
    <path
       inkscape:connector-curvature="0"
       id="path44007"
       d="m 40.499972,32.69086 -9.08214,-3.76566 -1.55961,3.76205 1.55702,3.76307 z"
       style="opacity:1;fill:#8ad5a3;fill-opacity:1;stroke:none;stroke-width:0.097233;stroke-miterlimit:4;stroke-dasharray:none;stroke-dashoffset:0;stroke-opacity:1;paint-order:markers fill stroke" />
    <path
       style="opacity:1;fill:#6ab9c4;fill-opacity:1;stroke:none;stroke-width:0.097233;stroke-miterlimit:4;stroke-dasharray:none;stroke-dashoffset:0;stroke-opacity:1;paint-order:markers fill stroke"
       d="m 27.649452,45.532621 3.76566,-9.082141 -3.76205,-1.55961 -3.76307,1.55702 z"
       id="path44013"
       inkscape:connector-curvature="0" />
    <path
       style="opacity:1;fill:#62cac0;fill-opacity:1;stroke:none;stroke-width:0.097233;stroke-miterlimit:4;stroke-dasharray:none;stroke-dashoffset:0;stroke-opacity:1;paint-order:markers fill stroke"
       d="m 36.734271,41.77305 -3.759319,-9.08477 -3.76298,1.55735 -1.55992,3.76188 z"
       id="path44031"
       inkscape:connector-curvature="0" />
    <path
       inkscape:connector-curvature="0"
       id="path44037"
       d="m 18.567292,41.766859 9.08476,-3.759319 -1.55735,-3.76298 -3.76188,-1.55992 z"
       style="opacity:1;fill:#78afc0;fill-opacity:1;stroke:none;stroke-width:0.097233;stroke-miterlimit:4;stroke-dasharray:none;stroke-dashoffset:0;stroke-opacity:1;paint-order:markers fill stroke" />
    <path
       style="opacity:1;fill:#77d0b0;fill-opacity:1;stroke:none;stroke-width:0.097233;stroke-miterlimit:4;stroke-dasharray:none;stroke-dashoffset:0;stroke-opacity:1;paint-order:markers fill stroke"
       d="m 18.573332,23.59979 3.75932,9.08477 3.76298,-1.55735 1.55992,-3.76188 z"
       id="path44043"
       inkscape:connector-curvature="0" />
    <path
       inkscape:connector-curvature="0"
       id="path44049"
       d="m 36.740793,23.60586 -9.084771,3.75932 1.55735,3.76298 3.761879,1.55992 z"
       style="opacity:1;fill:#b4e07f;fill-opacity:1;stroke:none;stroke-width:0.097233;stroke-miterlimit:4;stroke-dasharray:none;stroke-dashoffset:0;stroke-opacity:1;paint-order:markers fill stroke" />
    <path
       inkscape:connector-curvature="0"
       style="opacity:1;fill:#75cb7a;fill-opacity:1;stroke:none;stroke-width:0.097233;stroke-miterlimit:4;stroke-dasharray:none;stroke-dashoffset:0;stroke-opacity:1;paint-order:markers fill stroke"
       d="m 30.316652,26.26429 -2.66082,1.10125 1.10122,2.66081 2.66082,-1.10122 z"
       id="path43993" />
    <path
       inkscape:connector-curvature="0"
       id="path44009"
       d="m 34.076082,35.3491 -1.101249,-2.66082 -2.660811,1.10122 1.10122,2.66082 z"
       style="opacity:1;fill:#49c1a5;fill-opacity:1;stroke:none;stroke-width:0.097233;stroke-miterlimit:4;stroke-dasharray:none;stroke-dashoffset:0;stroke-opacity:1;paint-order:markers fill stroke" />
    <path
       style="opacity:1;fill:#409da9;fill-opacity:1;stroke:none;stroke-width:0.097233;stroke-miterlimit:4;stroke-dasharray:none;stroke-dashoffset:0;stroke-opacity:1;paint-order:markers fill stroke"
       d="m 24.991212,39.10873 2.66082,-1.10125 -1.10122,-2.66081 -2.66082,1.10122 z"
       id="path44015"
       inkscape:connector-curvature="0" />
    <path
       inkscape:connector-curvature="0"
       id="path44021"
       d="m 21.231742,30.02376 1.10125,2.66082 2.66081,-1.10122 -1.10122,-2.66082 z"
       style="opacity:1;fill:#40bcaa;fill-opacity:1;stroke:none;stroke-width:0.097233;stroke-miterlimit:4;stroke-dasharray:none;stroke-dashoffset:0;stroke-opacity:1;paint-order:markers fill stroke" />
    <path
       style="opacity:1;fill:#49a7ab;fill-opacity:1;stroke:none;stroke-width:0.097233;stroke-miterlimit:4;stroke-dasharray:none;stroke-dashoffset:0;stroke-opacity:1;paint-order:markers fill stroke"
       d="m 30.312232,39.11032 1.10278,-2.66018 -2.66015,-1.1028 -1.10281,2.66017 z"
       id="path44033"
       inkscape:connector-curvature="0" />
    <path
       inkscape:connector-curvature="0"
       id="path44039"
       d="m 21.230012,35.34482 2.66018,1.10278 1.1028,-2.66015 -2.66017,-1.10281 z"
       style="opacity:1;fill:#54a1ad;fill-opacity:1;stroke:none;stroke-width:0.097233;stroke-miterlimit:4;stroke-dasharray:none;stroke-dashoffset:0;stroke-opacity:1;paint-order:markers fill stroke" />
    <path
       style="opacity:1;fill:#53c17d;fill-opacity:1;stroke:none;stroke-width:0.097233;stroke-miterlimit:4;stroke-dasharray:none;stroke-dashoffset:0;stroke-opacity:1;paint-order:markers fill stroke"
       d="m 24.995372,26.26252 -1.10278,2.66018 2.66015,1.1028 1.10281,-2.66017 z"
       id="path44045"
       inkscape:connector-curvature="0" />
    <path
       inkscape:connector-curvature="0"
       id="path44051"
       d="m 34.078061,30.0279 -2.660179,-1.10278 -1.1028,2.66016 2.660169,1.1028 z"
       style="opacity:1;fill:#64c56a;fill-opacity:1;stroke:none;stroke-width:0.097233;stroke-miterlimit:4;stroke-dasharray:none;stroke-dashoffset:0;stroke-opacity:1;paint-order:markers fill stroke" />
    <g
       aria-label="International Center for Computational Logic"
       transform="matrix(0.20016218,0,0,0.20016218,36.111413,12.787159)"
       style="font-style:normal;font-weight:normal;font-size:40px;line-height:125%;font-family:sans-serif;text-align:start;letter-spacing:0px;word-spacing:0px;text-anchor:start;fill:#ffffff;fill-opacity:1;stroke:none;stroke-width:1.32184482px;stroke-linecap:butt;stroke-linejoin:miter;stroke-opacity:1"
       id="flowRoot44081">
      <path
         inkscape:connector-curvature="0"
         d="m 51.794775,87.697046 q -0.87999,0 -1.479983,-0.599993 Q 49.714798,86.49706 49.714798,85.61707 V 58.537377 q 0,-0.919989 0.599994,-1.479983 0.599993,-0.599993 1.479983,-0.599993 0.919989,0 1.479983,0.599993 0.599993,0.559994 0.599993,1.479983 V 85.61707 q 0,0.87999 -0.599993,1.479983 -0.559994,0.599993 -1.479983,0.599993 z"
         style="font-style:normal;font-variant:normal;font-weight:bold;font-stretch:normal;font-size:39.99954605px;font-family:Comfortaa;-inkscape-font-specification:'Comfortaa, Bold';font-variant-ligatures:normal;font-variant-caps:normal;font-variant-numeric:normal;font-feature-settings:normal;text-align:start;writing-mode:lr-tb;text-anchor:start;stroke-width:1.32184482px"
         id="path44097" />
      <path
         inkscape:connector-curvature="0"
         d="m 72.354499,65.617297 q 2.759969,0 4.959944,1.199986 2.199975,1.199987 3.439961,3.51996 1.239986,2.279974 1.239986,5.519938 v 9.839888 q 0,0.87999 -0.599994,1.479983 -0.559993,0.559994 -1.439983,0.559994 -0.87999,0 -1.479983,-0.559994 -0.559994,-0.599993 -0.559994,-1.479983 v -9.839888 q 0,-3.239964 -1.75998,-4.879945 -1.719981,-1.679981 -4.599948,-1.679981 -1.679981,0 -3.079965,0.679992 -1.359985,0.679993 -2.159975,1.83998 -0.759992,1.159986 -0.759992,2.59997 v 11.279872 q 0,0.87999 -0.559993,1.479983 -0.559994,0.559994 -1.479984,0.559994 -0.87999,0 -1.479983,-0.559994 -0.559994,-0.599993 -0.559994,-1.479983 V 67.857271 q 0,-0.919989 0.559994,-1.479983 0.599993,-0.559993 1.479983,-0.559993 0.91999,0 1.479984,0.559993 0.559993,0.559994 0.559993,1.479983 v 0.439995 q 1.279986,-1.279985 3.039966,-1.959977 1.75998,-0.719992 3.759957,-0.719992 z"
         style="font-style:normal;font-variant:normal;font-weight:bold;font-stretch:normal;font-size:39.99954605px;font-family:Comfortaa;-inkscape-font-specification:'Comfortaa, Bold';font-variant-ligatures:normal;font-variant-caps:normal;font-variant-numeric:normal;font-feature-settings:normal;text-align:start;writing-mode:lr-tb;text-anchor:start;stroke-width:1.32184482px"
         id="path44099" />
      <path
         inkscape:connector-curvature="0"
         d="m 98.074177,83.697092 q 0.719992,0 1.199986,0.559993 0.519994,0.559994 0.519994,1.439984 0,0.87999 -0.679992,1.439984 -0.639993,0.559993 -1.679981,0.559993 h -0.719992 q -1.959977,0 -3.599959,-0.999988 -1.599982,-1.039989 -2.519971,-2.799969 -0.91999,-1.75998 -0.91999,-3.959955 v -9.879887 h -1.839979 q -0.83999,0 -1.359984,-0.479995 -0.519995,-0.479995 -0.519995,-1.199986 0,-0.799991 0.519995,-1.279986 0.519994,-0.479994 1.359984,-0.479994 h 1.839979 v -5.759935 q 0,-0.87999 0.559994,-1.439984 0.559994,-0.559993 1.439984,-0.559993 0.87999,0 1.439983,0.559993 0.559994,0.559994 0.559994,1.439984 v 5.759935 h 3.399961 q 0.839991,0 1.359985,0.479994 0.519994,0.479995 0.519994,1.279986 0,0.719991 -0.519994,1.199986 -0.519994,0.479995 -1.359985,0.479995 h -3.399961 v 9.879887 q 0,1.599982 0.87999,2.67997 0.87999,1.079988 2.159975,1.079988 z"
         style="font-style:normal;font-variant:normal;font-weight:bold;font-stretch:normal;font-size:39.99954605px;font-family:Comfortaa;-inkscape-font-specification:'Comfortaa, Bold';font-variant-ligatures:normal;font-variant-caps:normal;font-variant-numeric:normal;font-feature-settings:normal;text-align:start;writing-mode:lr-tb;text-anchor:start;stroke-width:1.32184482px"
         id="path44101" />
      <path
         inkscape:connector-curvature="0"
         d="m 124.43384,76.417174 q 0,0.759992 -0.51999,1.279986 -0.52,0.479994 -1.31999,0.479994 h -15.19983 q 0.44,2.799969 2.51997,4.519949 2.11998,1.719981 5.15995,1.719981 1.19998,0 2.47997,-0.439995 1.31998,-0.439995 2.15997,-1.079988 0.56,-0.439995 1.31999,-0.439995 0.75999,0 1.19998,0.399995 0.72,0.599993 0.72,1.359985 0,0.719992 -0.64,1.199986 -1.35998,1.079988 -3.39996,1.75998 -1.99998,0.679993 -3.83995,0.679993 -3.27997,0 -5.87994,-1.399985 -2.59997,-1.439983 -4.07995,-3.959955 -1.43998,-2.519971 -1.43998,-5.719935 0,-3.199963 1.35998,-5.719935 1.39998,-2.559971 3.83996,-3.959955 2.47997,-1.439984 5.59993,-1.439984 3.07997,0 5.31994,1.359985 2.23998,1.359985 3.43996,3.799957 1.19999,2.439972 1.19999,5.599936 z m -9.95989,-7.319917 q -2.91996,0 -4.75994,1.599982 -1.79998,1.599982 -2.27998,4.279952 h 13.31985 q -0.35999,-2.67997 -1.99998,-4.279952 -1.63998,-1.599982 -4.27995,-1.599982 z"
         style="font-style:normal;font-variant:normal;font-weight:bold;font-stretch:normal;font-size:39.99954605px;font-family:Comfortaa;-inkscape-font-specification:'Comfortaa, Bold';font-variant-ligatures:normal;font-variant-caps:normal;font-variant-numeric:normal;font-feature-settings:normal;text-align:start;writing-mode:lr-tb;text-anchor:start;stroke-width:1.32184482px"
         id="path44103" />
      <path
         inkscape:connector-curvature="0"
         d="m 140.3536,65.577297 q 2.11997,0 3.31996,0.639993 1.19999,0.639993 1.19999,1.599982 0,0.279997 -0.04,0.399995 -0.36,1.279986 -1.59999,1.279986 -0.19999,0 -0.59999,-0.08 -1.59998,-0.279997 -2.59997,-0.279997 -2.87997,0 -4.63995,1.319985 -1.75998,1.319985 -1.75998,3.55996 v 11.679867 q 0,0.959989 -0.51999,1.479983 -0.47999,0.519994 -1.47998,0.519994 -0.95999,0 -1.47999,-0.479994 -0.51999,-0.519994 -0.51999,-1.519983 V 67.817272 q 0,-0.959989 0.51999,-1.479983 0.52,-0.519994 1.47999,-0.519994 1.99997,0 1.99997,1.999977 v 0.759991 q 1.19999,-1.399984 2.95997,-2.199975 1.75998,-0.799991 3.75996,-0.799991 z"
         style="font-style:normal;font-variant:normal;font-weight:bold;font-stretch:normal;font-size:39.99954605px;font-family:Comfortaa;-inkscape-font-specification:'Comfortaa, Bold';font-variant-ligatures:normal;font-variant-caps:normal;font-variant-numeric:normal;font-feature-settings:normal;text-align:start;writing-mode:lr-tb;text-anchor:start;stroke-width:1.32184482px"
         id="path44105" />
      <path
         inkscape:connector-curvature="0"
         d="m 159.9533,65.617297 q 2.75997,0 4.95994,1.199986 2.19998,1.199987 3.43997,3.51996 1.23998,2.279974 1.23998,5.519938 v 9.839888 q 0,0.87999 -0.59999,1.479983 -0.56,0.559994 -1.43999,0.559994 -0.87999,0 -1.47998,-0.559994 -0.55999,-0.599993 -0.55999,-1.479983 v -9.839888 q 0,-3.239964 -1.75998,-4.879945 -1.71998,-1.679981 -4.59995,-1.679981 -1.67998,0 -3.07997,0.679992 -1.35998,0.679993 -2.15997,1.83998 -0.75999,1.159986 -0.75999,2.59997 v 11.279872 q 0,0.87999 -0.56,1.479983 -0.55999,0.559994 -1.47998,0.559994 -0.87999,0 -1.47998,-0.559994 -0.56,-0.599993 -0.56,-1.479983 V 67.857271 q 0,-0.919989 0.56,-1.479983 0.59999,-0.559993 1.47998,-0.559993 0.91999,0 1.47998,0.559993 0.56,0.559994 0.56,1.479983 v 0.439995 q 1.27998,-1.279985 3.03996,-1.959977 1.75998,-0.719992 3.75996,-0.719992 z"
         style="font-style:normal;font-variant:normal;font-weight:bold;font-stretch:normal;font-size:39.99954605px;font-family:Comfortaa;-inkscape-font-specification:'Comfortaa, Bold';font-variant-ligatures:normal;font-variant-caps:normal;font-variant-numeric:normal;font-feature-settings:normal;text-align:start;writing-mode:lr-tb;text-anchor:start;stroke-width:1.32184482px"
         id="path44107" />
      <path
         inkscape:connector-curvature="0"
         d="m 186.27297,65.657296 q 3.07996,0 5.55993,1.479984 2.51998,1.439983 3.95996,3.999954 1.47998,2.519972 1.47998,5.639936 v 8.919899 q 0,0.87999 -0.59999,1.479983 -0.55999,0.559994 -1.43998,0.559994 -0.87999,0 -1.47999,-0.559994 -0.55999,-0.599993 -0.55999,-1.479983 v -1.479983 q -1.39999,1.71998 -3.39996,2.679969 -1.99998,0.95999 -4.31995,0.95999 -2.87997,0 -5.23994,-1.439984 -2.31998,-1.439984 -3.67996,-3.959955 -1.31999,-2.559971 -1.31999,-5.679936 0,-3.119964 1.43999,-5.639936 1.43998,-2.559971 3.95995,-3.999954 2.55997,-1.479984 5.63994,-1.479984 z m 0,18.599789 q 1.99997,0 3.59996,-0.959989 1.63998,-0.999988 2.55997,-2.679969 0.91999,-1.719981 0.91999,-3.839957 0,-2.119976 -0.91999,-3.839956 -0.91999,-1.719981 -2.55997,-2.67997 -1.59999,-0.999988 -3.59996,-0.999988 -1.99998,0 -3.63996,0.999988 -1.59998,0.959989 -2.55997,2.67997 -0.91999,1.71998 -0.91999,3.839956 0,2.119976 0.91999,3.839957 0.95999,1.679981 2.55997,2.679969 1.63998,0.959989 3.63996,0.959989 z"
         style="font-style:normal;font-variant:normal;font-weight:bold;font-stretch:normal;font-size:39.99954605px;font-family:Comfortaa;-inkscape-font-specification:'Comfortaa, Bold';font-variant-ligatures:normal;font-variant-caps:normal;font-variant-numeric:normal;font-feature-settings:normal;text-align:start;writing-mode:lr-tb;text-anchor:start;stroke-width:1.32184482px"
         id="path44109" />
      <path
         inkscape:connector-curvature="0"
         d="m 212.67263,83.697092 q 0.71999,0 1.19999,0.559993 0.51999,0.559994 0.51999,1.439984 0,0.87999 -0.67999,1.439984 -0.63999,0.559993 -1.67998,0.559993 h -0.71999 q -1.95998,0 -3.59996,-0.999988 -1.59999,-1.039989 -2.51997,-2.799969 -0.91999,-1.75998 -0.91999,-3.959955 v -9.879887 h -1.83998 q -0.83999,0 -1.35999,-0.479995 -0.51999,-0.479995 -0.51999,-1.199986 0,-0.799991 0.51999,-1.279986 0.52,-0.479994 1.35999,-0.479994 h 1.83998 v -5.759935 q 0,-0.87999 0.55999,-1.439984 0.55999,-0.559993 1.43998,-0.559993 0.87999,0 1.43999,0.559993 0.55999,0.559994 0.55999,1.439984 v 5.759935 h 3.39996 q 0.83999,0 1.35999,0.479994 0.51999,0.479995 0.51999,1.279986 0,0.719991 -0.51999,1.199986 -0.52,0.479995 -1.35999,0.479995 h -3.39996 v 9.879887 q 0,1.599982 0.87999,2.67997 0.87999,1.079988 2.15998,1.079988 z"
         style="font-style:normal;font-variant:normal;font-weight:bold;font-stretch:normal;font-size:39.99954605px;font-family:Comfortaa;-inkscape-font-specification:'Comfortaa, Bold';font-variant-ligatures:normal;font-variant-caps:normal;font-variant-numeric:normal;font-feature-settings:normal;text-align:start;writing-mode:lr-tb;text-anchor:start;stroke-width:1.32184482px"
         id="path44111" />
      <path
         inkscape:connector-curvature="0"
         d="m 221.8325,87.697046 q -0.87999,0 -1.47998,-0.559993 -0.55999,-0.599994 -0.55999,-1.479984 V 67.857271 q 0,-0.919989 0.55999,-1.479983 0.59999,-0.559993 1.47998,-0.559993 0.91999,0 1.47999,0.559993 0.55999,0.559994 0.55999,1.479983 v 17.799798 q 0,0.87999 -0.55999,1.479984 -0.56,0.559993 -1.47999,0.559993 z m 0,-25.439711 q -1.07998,0 -1.87998,-0.759991 -0.75999,-0.799991 -0.75999,-1.879979 0,-1.079988 0.75999,-1.839979 0.8,-0.799991 1.87998,-0.799991 1.07999,0 1.83998,0.799991 0.79999,0.759991 0.79999,1.839979 0,1.079988 -0.79999,1.879979 -0.75999,0.759991 -1.83998,0.759991 z"
         style="font-style:normal;font-variant:normal;font-weight:bold;font-stretch:normal;font-size:39.99954605px;font-family:Comfortaa;-inkscape-font-specification:'Comfortaa, Bold';font-variant-ligatures:normal;font-variant-caps:normal;font-variant-numeric:normal;font-feature-settings:normal;text-align:start;writing-mode:lr-tb;text-anchor:start;stroke-width:1.32184482px"
         id="path44113" />
      <path
         inkscape:connector-curvature="0"
         d="m 241.39221,87.857045 q -3.19997,0 -5.71994,-1.399985 -2.51997,-1.439983 -3.91995,-3.959955 -1.39999,-2.519971 -1.39999,-5.719935 0,-3.239963 1.39999,-5.759934 1.39998,-2.519972 3.91995,-3.919956 2.51997,-1.439984 5.71994,-1.439984 3.15996,0 5.63993,1.439984 2.51997,1.399984 3.91996,3.919956 1.43998,2.519971 1.43998,5.759934 0,3.199964 -1.39998,5.719935 -1.39999,2.519972 -3.91996,3.959955 -2.47997,1.399985 -5.67993,1.399985 z m 0,-3.59996 q 2.03997,0 3.63996,-0.959989 1.63998,-0.959989 2.51997,-2.63997 0.91999,-1.71998 0.91999,-3.879956 0,-2.159975 -0.91999,-3.879956 -0.87999,-1.71998 -2.51997,-2.679969 -1.59999,-0.959989 -3.63996,-0.959989 -2.03998,0 -3.67996,0.959989 -1.59998,0.959989 -2.51997,2.679969 -0.91999,1.719981 -0.91999,3.879956 0,2.159976 0.91999,3.879956 0.91999,1.679981 2.51997,2.63997 1.63998,0.959989 3.67996,0.959989 z"
         style="font-style:normal;font-variant:normal;font-weight:bold;font-stretch:normal;font-size:39.99954605px;font-family:Comfortaa;-inkscape-font-specification:'Comfortaa, Bold';font-variant-ligatures:normal;font-variant-caps:normal;font-variant-numeric:normal;font-feature-settings:normal;text-align:start;writing-mode:lr-tb;text-anchor:start;stroke-width:1.32184482px"
         id="path44115" />
      <path
         inkscape:connector-curvature="0"
         d="m 269.35184,65.617297 q 2.75997,0 4.95995,1.199986 2.19997,1.199987 3.43996,3.51996 1.23999,2.279974 1.23999,5.519938 v 9.839888 q 0,0.87999 -0.6,1.479983 -0.55999,0.559994 -1.43998,0.559994 -0.87999,0 -1.47998,-0.559994 -0.56,-0.599993 -0.56,-1.479983 v -9.839888 q 0,-3.239964 -1.75998,-4.879945 -1.71998,-1.679981 -4.59995,-1.679981 -1.67998,0 -3.07996,0.679992 -1.35999,0.679993 -2.15998,1.83998 -0.75999,1.159986 -0.75999,2.59997 v 11.279872 q 0,0.87999 -0.55999,1.479983 -0.56,0.559994 -1.47998,0.559994 -0.87999,0 -1.47999,-0.559994 -0.55999,-0.599993 -0.55999,-1.479983 V 67.857271 q 0,-0.919989 0.55999,-1.479983 0.6,-0.559993 1.47999,-0.559993 0.91998,0 1.47998,0.559993 0.55999,0.559994 0.55999,1.479983 v 0.439995 q 1.27999,-1.279985 3.03997,-1.959977 1.75998,-0.719992 3.75995,-0.719992 z"
         style="font-style:normal;font-variant:normal;font-weight:bold;font-stretch:normal;font-size:39.99954605px;font-family:Comfortaa;-inkscape-font-specification:'Comfortaa, Bold';font-variant-ligatures:normal;font-variant-caps:normal;font-variant-numeric:normal;font-feature-settings:normal;text-align:start;writing-mode:lr-tb;text-anchor:start;stroke-width:1.32184482px"
         id="path44117" />
      <path
         inkscape:connector-curvature="0"
         d="m 295.67152,65.657296 q 3.07996,0 5.55994,1.479984 2.51997,1.439983 3.95995,3.999954 1.47998,2.519972 1.47998,5.639936 v 8.919899 q 0,0.87999 -0.59999,1.479983 -0.55999,0.559994 -1.43998,0.559994 -0.87999,0 -1.47999,-0.559994 -0.55999,-0.599993 -0.55999,-1.479983 v -1.479983 q -1.39998,1.71998 -3.39996,2.679969 -1.99998,0.95999 -4.31995,0.95999 -2.87997,0 -5.23994,-1.439984 -2.31998,-1.439984 -3.67996,-3.959955 -1.31999,-2.559971 -1.31999,-5.679936 0,-3.119964 1.43999,-5.639936 1.43998,-2.559971 3.95995,-3.999954 2.55997,-1.479984 5.63994,-1.479984 z m 0,18.599789 q 1.99998,0 3.59996,-0.959989 1.63998,-0.999988 2.55997,-2.679969 0.91999,-1.719981 0.91999,-3.839957 0,-2.119976 -0.91999,-3.839956 -0.91999,-1.719981 -2.55997,-2.67997 -1.59998,-0.999988 -3.59996,-0.999988 -1.99998,0 -3.63996,0.999988 -1.59998,0.959989 -2.55997,2.67997 -0.91999,1.71998 -0.91999,3.839956 0,2.119976 0.91999,3.839957 0.95999,1.679981 2.55997,2.679969 1.63998,0.959989 3.63996,0.959989 z"
         style="font-style:normal;font-variant:normal;font-weight:bold;font-stretch:normal;font-size:39.99954605px;font-family:Comfortaa;-inkscape-font-specification:'Comfortaa, Bold';font-variant-ligatures:normal;font-variant-caps:normal;font-variant-numeric:normal;font-feature-settings:normal;text-align:start;writing-mode:lr-tb;text-anchor:start;stroke-width:1.32184482px"
         id="path44119" />
      <path
         inkscape:connector-curvature="0"
         d="m 317.95124,87.697046 q -1.71998,0 -3.11997,-0.919989 -1.35998,-0.959989 -2.11997,-2.63997 -0.76,-1.719981 -0.76,-3.839957 V 58.457378 q 0,-0.87999 0.56,-1.439983 0.55999,-0.559994 1.43998,-0.559994 0.87999,0 1.43999,0.559994 0.55999,0.559993 0.55999,1.439983 V 80.29713 q 0,1.479984 0.55999,2.439973 0.56,0.959989 1.43999,0.959989 h 0.99999 q 0.79999,0 1.27998,0.559993 0.52,0.559994 0.52,1.439984 0,0.87999 -0.76,1.439984 -0.75999,0.559993 -1.95997,0.559993 z"
         style="font-style:normal;font-variant:normal;font-weight:bold;font-stretch:normal;font-size:39.99954605px;font-family:Comfortaa;-inkscape-font-specification:'Comfortaa, Bold';font-variant-ligatures:normal;font-variant-caps:normal;font-variant-numeric:normal;font-feature-settings:normal;text-align:start;writing-mode:lr-tb;text-anchor:start;stroke-width:1.32184482px"
         id="path44121" />
      <path
         inkscape:connector-curvature="0"
         d="m 350.8708,88.097042 q -4.27995,0 -7.83991,-2.119976 -3.51996,-2.119976 -5.55994,-5.799934 -2.03998,-3.679959 -2.03998,-8.119908 0,-4.39995 2.03998,-8.039909 2.03998,-3.679958 5.55994,-5.799934 3.55996,-2.159976 7.83991,-2.159976 3.03996,0 5.23994,0.799991 2.23997,0.799991 4.51995,2.63997 0.47999,0.359996 0.63999,0.759992 0.16,0.359996 0.16,0.87999 0,0.799991 -0.6,1.319985 -0.55999,0.519994 -1.31998,0.519994 -0.75999,0 -1.39998,-0.519994 -1.63999,-1.399984 -3.19997,-1.999978 -1.55998,-0.639992 -4.03995,-0.639992 -3.11997,0 -5.75994,1.639981 -2.59997,1.639982 -4.15995,4.479949 -1.51998,2.799969 -1.51998,6.119931 0,3.359962 1.51998,6.15993 1.55998,2.799968 4.15995,4.43995 2.63997,1.639981 5.75994,1.639981 3.83995,0 7.35991,-2.63997 0.68,-0.479995 1.31999,-0.479995 0.75999,0 1.23999,0.559994 0.51999,0.519994 0.51999,1.399984 0,0.839991 -0.63999,1.479983 -4.31995,3.479961 -9.79989,3.479961 z"
         style="font-style:normal;font-variant:normal;font-weight:bold;font-stretch:normal;font-size:39.99954605px;font-family:Comfortaa;-inkscape-font-specification:'Comfortaa, Bold';font-variant-ligatures:normal;font-variant-caps:normal;font-variant-numeric:normal;font-feature-settings:normal;text-align:start;writing-mode:lr-tb;text-anchor:start;stroke-width:1.32184482px"
         id="path44123" />
      <path
         inkscape:connector-curvature="0"
         d="m 385.59032,76.417174 q 0,0.759992 -0.51999,1.279986 -0.52,0.479994 -1.31999,0.479994 h -15.19982 q 0.43999,2.799969 2.51997,4.519949 2.11997,1.719981 5.15994,1.719981 1.19998,0 2.47997,-0.439995 1.31999,-0.439995 2.15998,-1.079988 0.55999,-0.439995 1.31998,-0.439995 0.75999,0 1.19999,0.399995 0.71999,0.599993 0.71999,1.359985 0,0.719992 -0.63999,1.199986 -1.35999,1.079988 -3.39997,1.75998 -1.99997,0.679993 -3.83995,0.679993 -3.27996,0 -5.87993,-1.399985 -2.59998,-1.439983 -4.07996,-3.959955 -1.43998,-2.519971 -1.43998,-5.719935 0,-3.199963 1.35998,-5.719935 1.39999,-2.559971 3.83996,-3.959955 2.47997,-1.439984 5.59994,-1.439984 3.07996,0 5.31993,1.359985 2.23998,1.359985 3.43997,3.799957 1.19998,2.439972 1.19998,5.599936 z m -9.95988,-7.319917 q -2.91997,0 -4.75995,1.599982 -1.79998,1.599982 -2.27997,4.279952 h 13.31984 q -0.35999,-2.67997 -1.99997,-4.279952 -1.63998,-1.599982 -4.27995,-1.599982 z"
         style="font-style:normal;font-variant:normal;font-weight:bold;font-stretch:normal;font-size:39.99954605px;font-family:Comfortaa;-inkscape-font-specification:'Comfortaa, Bold';font-variant-ligatures:normal;font-variant-caps:normal;font-variant-numeric:normal;font-feature-settings:normal;text-align:start;writing-mode:lr-tb;text-anchor:start;stroke-width:1.32184482px"
         id="path44125" />
      <path
         inkscape:connector-curvature="0"
         d="m 401.67008,65.617297 q 2.75997,0 4.95995,1.199986 2.19997,1.199987 3.43996,3.51996 1.23998,2.279974 1.23998,5.519938 v 9.839888 q 0,0.87999 -0.59999,1.479983 -0.55999,0.559994 -1.43998,0.559994 -0.87999,0 -1.47999,-0.559994 -0.55999,-0.599993 -0.55999,-1.479983 v -9.839888 q 0,-3.239964 -1.75998,-4.879945 -1.71998,-1.679981 -4.59995,-1.679981 -1.67998,0 -3.07996,0.679992 -1.35999,0.679993 -2.15998,1.83998 -0.75999,1.159986 -0.75999,2.59997 v 11.279872 q 0,0.87999 -0.55999,1.479983 -0.56,0.559994 -1.47999,0.559994 -0.87999,0 -1.47998,-0.559994 -0.55999,-0.599993 -0.55999,-1.479983 V 67.857271 q 0,-0.919989 0.55999,-1.479983 0.59999,-0.559993 1.47998,-0.559993 0.91999,0 1.47999,0.559993 0.55999,0.559994 0.55999,1.479983 v 0.439995 q 1.27998,-1.279985 3.03996,-1.959977 1.75998,-0.719992 3.75996,-0.719992 z"
         style="font-style:normal;font-variant:normal;font-weight:bold;font-stretch:normal;font-size:39.99954605px;font-family:Comfortaa;-inkscape-font-specification:'Comfortaa, Bold';font-variant-ligatures:normal;font-variant-caps:normal;font-variant-numeric:normal;font-feature-settings:normal;text-align:start;writing-mode:lr-tb;text-anchor:start;stroke-width:1.32184482px"
         id="path44127" />
      <path
         inkscape:connector-curvature="0"
         d="m 427.38973,83.697092 q 0.71999,0 1.19999,0.559993 0.51999,0.559994 0.51999,1.439984 0,0.87999 -0.67999,1.439984 -0.63999,0.559993 -1.67998,0.559993 h -0.71999 q -1.95998,0 -3.59996,-0.999988 -1.59998,-1.039989 -2.51997,-2.799969 -0.91999,-1.75998 -0.91999,-3.959955 v -9.879887 h -1.83998 q -0.83999,0 -1.35999,-0.479995 -0.51999,-0.479995 -0.51999,-1.199986 0,-0.799991 0.51999,-1.279986 0.52,-0.479994 1.35999,-0.479994 h 1.83998 v -5.759935 q 0,-0.87999 0.55999,-1.439984 0.56,-0.559993 1.43999,-0.559993 0.87999,0 1.43998,0.559993 0.55999,0.559994 0.55999,1.439984 v 5.759935 h 3.39996 q 0.83999,0 1.35999,0.479994 0.51999,0.479995 0.51999,1.279986 0,0.719991 -0.51999,1.199986 -0.52,0.479995 -1.35999,0.479995 h -3.39996 v 9.879887 q 0,1.599982 0.87999,2.67997 0.87999,1.079988 2.15998,1.079988 z"
         style="font-style:normal;font-variant:normal;font-weight:bold;font-stretch:normal;font-size:39.99954605px;font-family:Comfortaa;-inkscape-font-specification:'Comfortaa, Bold';font-variant-ligatures:normal;font-variant-caps:normal;font-variant-numeric:normal;font-feature-settings:normal;text-align:start;writing-mode:lr-tb;text-anchor:start;stroke-width:1.32184482px"
         id="path44129" />
      <path
         inkscape:connector-curvature="0"
         d="m 453.74941,76.417174 q 0,0.759992 -0.51999,1.279986 -0.52,0.479994 -1.31999,0.479994 H 436.7096 q 0.44,2.799969 2.51998,4.519949 2.11997,1.719981 5.15994,1.719981 1.19998,0 2.47997,-0.439995 1.31998,-0.439995 2.15997,-1.079988 0.56,-0.439995 1.31999,-0.439995 0.75999,0 1.19999,0.399995 0.71999,0.599993 0.71999,1.359985 0,0.719992 -0.64,1.199986 -1.35998,1.079988 -3.39996,1.75998 -1.99997,0.679993 -3.83995,0.679993 -3.27997,0 -5.87994,-1.399985 -2.59997,-1.439983 -4.07995,-3.959955 -1.43998,-2.519971 -1.43998,-5.719935 0,-3.199963 1.35998,-5.719935 1.39998,-2.559971 3.83996,-3.959955 2.47997,-1.439984 5.59993,-1.439984 3.07997,0 5.31994,1.359985 2.23998,1.359985 3.43996,3.799957 1.19999,2.439972 1.19999,5.599936 z m -9.95989,-7.319917 q -2.91996,0 -4.75994,1.599982 -1.79998,1.599982 -2.27998,4.279952 h 13.31985 q -0.35999,-2.67997 -1.99998,-4.279952 -1.63998,-1.599982 -4.27995,-1.599982 z"
         style="font-style:normal;font-variant:normal;font-weight:bold;font-stretch:normal;font-size:39.99954605px;font-family:Comfortaa;-inkscape-font-specification:'Comfortaa, Bold';font-variant-ligatures:normal;font-variant-caps:normal;font-variant-numeric:normal;font-feature-settings:normal;text-align:start;writing-mode:lr-tb;text-anchor:start;stroke-width:1.32184482px"
         id="path44131" />
      <path
         inkscape:connector-curvature="0"
         d="m 469.66917,65.577297 q 2.11998,0 3.31996,0.639993 1.19999,0.639993 1.19999,1.599982 0,0.279997 -0.04,0.399995 -0.35999,1.279986 -1.59998,1.279986 -0.2,0 -0.59999,-0.08 -1.59999,-0.279997 -2.59997,-0.279997 -2.87997,0 -4.63995,1.319985 -1.75998,1.319985 -1.75998,3.55996 v 11.679867 q 0,0.959989 -0.52,1.479983 -0.47999,0.519994 -1.47998,0.519994 -0.95999,0 -1.47998,-0.479994 -0.52,-0.519994 -0.52,-1.519983 V 67.817272 q 0,-0.959989 0.52,-1.479983 0.51999,-0.519994 1.47998,-0.519994 1.99998,0 1.99998,1.999977 v 0.759991 q 1.19998,-1.399984 2.95996,-2.199975 1.75998,-0.799991 3.75996,-0.799991 z"
         style="font-style:normal;font-variant:normal;font-weight:bold;font-stretch:normal;font-size:39.99954605px;font-family:Comfortaa;-inkscape-font-specification:'Comfortaa, Bold';font-variant-ligatures:normal;font-variant-caps:normal;font-variant-numeric:normal;font-feature-settings:normal;text-align:start;writing-mode:lr-tb;text-anchor:start;stroke-width:1.32184482px"
         id="path44133" />
      <path
         inkscape:connector-curvature="0"
         d="m 58.754696,110.71243 q -2.239975,0 -3.599959,1.47999 -1.359985,1.47998 -1.359985,3.91995 v 1.07999 h 4.079954 q 0.83999,0 1.359984,0.47999 0.519994,0.48 0.519994,1.27999 0,0.71999 -0.519994,1.19999 -0.519994,0.47999 -1.359984,0.47999 h -4.079954 v 15.59982 q 0,0.91999 -0.559994,1.47999 -0.559993,0.55999 -1.559982,0.55999 -0.799991,0 -1.399984,-0.55999 -0.559994,-0.56 -0.559994,-1.47999 v -15.59982 h -1.71998 q -0.839991,0 -1.359985,-0.47999 -0.519994,-0.48 -0.519994,-1.19999 0,-0.79999 0.519994,-1.27999 0.519994,-0.47999 1.359985,-0.47999 h 1.71998 v -0.67999 q 0,-2.83997 1.119988,-4.95995 1.159986,-2.15997 3.199963,-3.31996 2.079977,-1.19999 4.719947,-1.19999 0.87999,0 1.439983,0.52 0.599994,0.51999 0.599994,1.31998 0,0.79999 -0.599994,1.31999 -0.559993,0.51999 -1.439983,0.51999 z"
         style="font-style:normal;font-variant:normal;font-weight:bold;font-stretch:normal;font-size:39.99954605px;font-family:Comfortaa;-inkscape-font-specification:'Comfortaa, Bold';font-variant-ligatures:normal;font-variant-caps:normal;font-variant-numeric:normal;font-feature-settings:normal;text-align:start;writing-mode:lr-tb;text-anchor:start;stroke-width:1.32184482px"
         id="path44135" />
      <path
         inkscape:connector-curvature="0"
         d="m 73.114462,138.43212 q -3.199964,0 -5.719936,-1.39999 -2.519971,-1.43998 -3.919955,-3.95995 -1.399984,-2.51997 -1.399984,-5.71994 0,-3.23996 1.399984,-5.75993 1.399984,-2.51997 3.919955,-3.91996 2.519972,-1.43998 5.719936,-1.43998 3.159964,0 5.639936,1.43998 2.519971,1.39999 3.919955,3.91996 1.439984,2.51997 1.439984,5.75993 0,3.19997 -1.399984,5.71994 -1.399985,2.51997 -3.919956,3.95995 -2.479972,1.39999 -5.679935,1.39999 z m 0,-3.59996 q 2.039976,0 3.639958,-0.95999 1.639982,-0.95999 2.519972,-2.63997 0.919989,-1.71998 0.919989,-3.87996 0,-2.15997 -0.919989,-3.87995 -0.87999,-1.71998 -2.519972,-2.67997 -1.599982,-0.95999 -3.639958,-0.95999 -2.039977,0 -3.679959,0.95999 -1.599982,0.95999 -2.519971,2.67997 -0.91999,1.71998 -0.91999,3.87995 0,2.15998 0.91999,3.87996 0.919989,1.67998 2.519971,2.63997 1.639982,0.95999 3.679959,0.95999 z"
         style="font-style:normal;font-variant:normal;font-weight:bold;font-stretch:normal;font-size:39.99954605px;font-family:Comfortaa;-inkscape-font-specification:'Comfortaa, Bold';font-variant-ligatures:normal;font-variant-caps:normal;font-variant-numeric:normal;font-feature-settings:normal;text-align:start;writing-mode:lr-tb;text-anchor:start;stroke-width:1.32184482px"
         id="path44137" />
      <path
         inkscape:connector-curvature="0"
         d="m 100.91411,116.15237 q 2.11998,0 3.31997,0.63999 1.19998,0.64 1.19998,1.59999 0,0.27999 -0.04,0.39999 -0.35999,1.27999 -1.59998,1.27999 -0.2,0 -0.59999,-0.08 -1.59998,-0.28 -2.59997,-0.28 -2.87997,0 -4.63995,1.31999 -1.75998,1.31998 -1.75998,3.55995 v 11.67987 q 0,0.95999 -0.519994,1.47999 -0.479994,0.51999 -1.479983,0.51999 -0.959989,0 -1.479983,-0.47999 -0.519994,-0.52 -0.519994,-1.51999 v -17.87979 q 0,-0.95999 0.519994,-1.47999 0.519994,-0.51999 1.479983,-0.51999 1.999977,0 1.999977,1.99998 v 0.75999 q 1.199987,-1.39999 2.959967,-2.19998 1.75998,-0.79999 3.759953,-0.79999 z"
         style="font-style:normal;font-variant:normal;font-weight:bold;font-stretch:normal;font-size:39.99954605px;font-family:Comfortaa;-inkscape-font-specification:'Comfortaa, Bold';font-variant-ligatures:normal;font-variant-caps:normal;font-variant-numeric:normal;font-feature-settings:normal;text-align:start;writing-mode:lr-tb;text-anchor:start;stroke-width:1.32184482px"
         id="path44139" />
      <path
         inkscape:connector-curvature="0"
         d="m 135.75362,138.67212 q -4.27995,0 -7.83991,-2.11998 -3.51996,-2.11998 -5.55994,-5.79994 -2.03998,-3.67995 -2.03998,-8.1199 0,-4.39995 2.03998,-8.03991 2.03998,-3.67996 5.55994,-5.79994 3.55996,-2.15997 7.83991,-2.15997 3.03996,0 5.23994,0.79999 2.23997,0.79999 4.51995,2.63997 0.47999,0.36 0.63999,0.75999 0.16,0.36 0.16,0.87999 0,0.79999 -0.59999,1.31999 -0.56,0.51999 -1.31999,0.51999 -0.75999,0 -1.39998,-0.51999 -1.63999,-1.39999 -3.19997,-1.99998 -1.55998,-0.63999 -4.03995,-0.63999 -3.11997,0 -5.75994,1.63998 -2.59997,1.63998 -4.15995,4.47995 -1.51998,2.79996 -1.51998,6.11993 0,3.35996 1.51998,6.15993 1.55998,2.79997 4.15995,4.43995 2.63997,1.63998 5.75994,1.63998 3.83995,0 7.35991,-2.63997 0.68,-0.48 1.31999,-0.48 0.75999,0 1.23999,0.56 0.51999,0.51999 0.51999,1.39998 0,0.83999 -0.63999,1.47998 -4.31995,3.47997 -9.79989,3.47997 z"
         style="font-style:normal;font-variant:normal;font-weight:bold;font-stretch:normal;font-size:39.99954605px;font-family:Comfortaa;-inkscape-font-specification:'Comfortaa, Bold';font-variant-ligatures:normal;font-variant-caps:normal;font-variant-numeric:normal;font-feature-settings:normal;text-align:start;writing-mode:lr-tb;text-anchor:start;stroke-width:1.32184482px"
         id="path44141" />
      <path
         inkscape:connector-curvature="0"
         d="m 160.75324,138.43212 q -3.19997,0 -5.71994,-1.39999 -2.51997,-1.43998 -3.91995,-3.95995 -1.39999,-2.51997 -1.39999,-5.71994 0,-3.23996 1.39999,-5.75993 1.39998,-2.51997 3.91995,-3.91996 2.51997,-1.43998 5.71994,-1.43998 3.15996,0 5.63993,1.43998 2.51997,1.39999 3.91996,3.91996 1.43998,2.51997 1.43998,5.75993 0,3.19997 -1.39998,5.71994 -1.39999,2.51997 -3.91996,3.95995 -2.47997,1.39999 -5.67993,1.39999 z m 0,-3.59996 q 2.03997,0 3.63996,-0.95999 1.63998,-0.95999 2.51997,-2.63997 0.91999,-1.71998 0.91999,-3.87996 0,-2.15997 -0.91999,-3.87995 -0.87999,-1.71998 -2.51997,-2.67997 -1.59999,-0.95999 -3.63996,-0.95999 -2.03998,0 -3.67996,0.95999 -1.59998,0.95999 -2.51997,2.67997 -0.91999,1.71998 -0.91999,3.87995 0,2.15998 0.91999,3.87996 0.91999,1.67998 2.51997,2.63997 1.63998,0.95999 3.67996,0.95999 z"
         style="font-style:normal;font-variant:normal;font-weight:bold;font-stretch:normal;font-size:39.99954605px;font-family:Comfortaa;-inkscape-font-specification:'Comfortaa, Bold';font-variant-ligatures:normal;font-variant-caps:normal;font-variant-numeric:normal;font-feature-settings:normal;text-align:start;writing-mode:lr-tb;text-anchor:start;stroke-width:1.32184482px"
         id="path44143" />
      <path
         inkscape:connector-curvature="0"
         d="m 200.83275,116.19237 q 3.47996,0 5.59993,2.27997 2.15998,2.27998 2.15998,6.35993 v 11.43987 q 0,0.87999 -0.56,1.47999 -0.55999,0.55999 -1.47998,0.55999 -0.87999,0 -1.47998,-0.55999 -0.56,-0.6 -0.56,-1.47999 v -11.43987 q 0,-2.43997 -1.23998,-3.67996 -1.19999,-1.27998 -3.23997,-1.27998 -2.07997,0 -3.43996,1.43998 -1.31998,1.43999 -1.31998,3.67996 v 11.27987 q 0,0.87999 -0.55999,1.47999 -0.56,0.55999 -1.47999,0.55999 -0.87999,0 -1.47998,-0.55999 -0.55999,-0.6 -0.55999,-1.47999 v -11.43987 q 0,-2.43997 -1.23999,-3.67996 -1.19999,-1.27998 -3.23996,-1.27998 -2.11998,0 -3.47996,1.43998 -1.31999,1.43999 -1.31999,3.67996 v 11.27987 q 0,0.87999 -0.55999,1.47999 -0.56,0.55999 -1.47999,0.55999 -0.87999,0 -1.47998,-0.55999 -0.55999,-0.6 -0.55999,-1.47999 v -17.7998 q 0,-0.91999 0.55999,-1.47998 0.59999,-0.55999 1.47998,-0.55999 0.87999,0 1.43999,0.55999 0.55999,0.52 0.59999,1.39999 1.03999,-1.03999 2.47997,-1.59999 1.43999,-0.59999 3.11997,-0.59999 2.03997,0 3.63996,0.83999 1.63998,0.79999 2.67997,2.31997 1.19998,-1.47998 2.99996,-2.31997 1.79998,-0.83999 3.99996,-0.83999 z"
         style="font-style:normal;font-variant:normal;font-weight:bold;font-stretch:normal;font-size:39.99954605px;font-family:Comfortaa;-inkscape-font-specification:'Comfortaa, Bold';font-variant-ligatures:normal;font-variant-caps:normal;font-variant-numeric:normal;font-feature-settings:normal;text-align:start;writing-mode:lr-tb;text-anchor:start;stroke-width:1.32184482px"
         id="path44145" />
      <path
         inkscape:connector-curvature="0"
         d="m 226.35244,116.23237 q 3.07997,0 5.59994,1.47998 2.55997,1.43999 3.99995,3.99996 1.43999,2.51997 1.43999,5.63993 0,3.11997 -1.35999,5.67994 -1.31998,2.51997 -3.67995,3.95995 -2.31998,1.43999 -5.19995,1.43999 -2.31997,0 -4.31995,-0.95999 -1.99997,-0.95999 -3.39996,-2.67997 v 10.79988 q 0,0.91999 -0.55999,1.47998 -0.56,0.55999 -1.47998,0.55999 -0.87999,0 -1.47999,-0.55999 -0.55999,-0.55999 -0.55999,-1.47998 v -18.2398 q 0,-3.11996 1.43998,-5.63993 1.47999,-2.55997 3.95996,-3.99996 2.51997,-1.47998 5.59993,-1.47998 z m 0,18.59979 q 1.99998,0 3.59996,-0.95999 1.63998,-0.99999 2.55997,-2.67997 0.95999,-1.71998 0.95999,-3.83996 0,-2.11997 -0.95999,-3.83995 -0.91999,-1.71998 -2.55997,-2.67997 -1.59998,-0.99999 -3.59996,-0.99999 -1.99997,0 -3.63996,0.99999 -1.59998,0.95999 -2.51997,2.67997 -0.91999,1.71998 -0.91999,3.83995 0,2.11998 0.91999,3.83996 0.91999,1.67998 2.51997,2.67997 1.63999,0.95999 3.63996,0.95999 z"
         style="font-style:normal;font-variant:normal;font-weight:bold;font-stretch:normal;font-size:39.99954605px;font-family:Comfortaa;-inkscape-font-specification:'Comfortaa, Bold';font-variant-ligatures:normal;font-variant-caps:normal;font-variant-numeric:normal;font-feature-settings:normal;text-align:start;writing-mode:lr-tb;text-anchor:start;stroke-width:1.32184482px"
         id="path44147" />
      <path
         inkscape:connector-curvature="0"
         d="m 261.51201,116.35237 q 0.91999,0 1.47998,0.55999 0.55999,0.56 0.55999,1.47999 v 17.83979 q 0,0.87999 -0.55999,1.47999 -0.55999,0.55999 -1.47998,0.55999 -0.87999,0 -1.47999,-0.55999 -0.55999,-0.6 -0.55999,-1.47999 v -0.43999 q -1.27998,1.27998 -3.03996,1.99998 -1.75998,0.67999 -3.75996,0.67999 -2.75997,0 -4.95995,-1.19999 -2.19997,-1.19999 -3.43996,-3.47996 -1.23998,-2.31997 -1.23998,-5.55994 v -9.83988 q 0,-0.87999 0.55999,-1.43999 0.59999,-0.59999 1.47998,-0.59999 0.87999,0 1.43999,0.59999 0.59999,0.56 0.59999,1.43999 v 9.83988 q 0,3.23997 1.71998,4.91995 1.75998,1.63998 4.63995,1.63998 1.67998,0 3.03996,-0.67999 1.39999,-0.68 2.15998,-1.83998 0.79999,-1.15999 0.79999,-2.59997 v -11.27987 q 0,-0.91999 0.55999,-1.47999 0.6,-0.55999 1.47999,-0.55999 z"
         style="font-style:normal;font-variant:normal;font-weight:bold;font-stretch:normal;font-size:39.99954605px;font-family:Comfortaa;-inkscape-font-specification:'Comfortaa, Bold';font-variant-ligatures:normal;font-variant-caps:normal;font-variant-numeric:normal;font-feature-settings:normal;text-align:start;writing-mode:lr-tb;text-anchor:start;stroke-width:1.32184482px"
         id="path44149" />
      <path
         inkscape:connector-curvature="0"
         d="m 280.07177,134.27216 q 0.71999,0 1.19999,0.56 0.51999,0.55999 0.51999,1.43998 0,0.87999 -0.67999,1.43999 -0.63999,0.55999 -1.67998,0.55999 h -0.71999 q -1.95998,0 -3.59996,-0.99999 -1.59999,-1.03999 -2.51998,-2.79997 -0.91998,-1.75998 -0.91998,-3.95995 v -9.87989 h -1.83998 q -0.83999,0 -1.35999,-0.47999 -0.51999,-0.48 -0.51999,-1.19999 0,-0.79999 0.51999,-1.27999 0.52,-0.47999 1.35999,-0.47999 h 1.83998 v -5.75994 q 0,-0.87999 0.55999,-1.43998 0.55999,-0.55999 1.43998,-0.55999 0.87999,0 1.43999,0.55999 0.55999,0.55999 0.55999,1.43998 v 5.75994 h 3.39996 q 0.83999,0 1.35999,0.47999 0.51999,0.48 0.51999,1.27999 0,0.71999 -0.51999,1.19999 -0.52,0.47999 -1.35999,0.47999 h -3.39996 v 9.87989 q 0,1.59998 0.87999,2.67997 0.87999,1.07998 2.15998,1.07998 z"
         style="font-style:normal;font-variant:normal;font-weight:bold;font-stretch:normal;font-size:39.99954605px;font-family:Comfortaa;-inkscape-font-specification:'Comfortaa, Bold';font-variant-ligatures:normal;font-variant-caps:normal;font-variant-numeric:normal;font-feature-settings:normal;text-align:start;writing-mode:lr-tb;text-anchor:start;stroke-width:1.32184482px"
         id="path44151" />
      <path
         inkscape:connector-curvature="0"
         d="m 296.71154,116.23237 q 3.07997,0 5.55994,1.47998 2.51997,1.43999 3.95995,3.99996 1.47999,2.51997 1.47999,5.63993 v 8.9199 q 0,0.87999 -0.6,1.47999 -0.55999,0.55999 -1.43998,0.55999 -0.87999,0 -1.47998,-0.55999 -0.56,-0.6 -0.56,-1.47999 v -1.47998 q -1.39998,1.71998 -3.39996,2.67997 -1.99997,0.95999 -4.31995,0.95999 -2.87997,0 -5.23994,-1.43999 -2.31997,-1.43998 -3.67996,-3.95995 -1.31998,-2.55997 -1.31998,-5.67994 0,-3.11996 1.43998,-5.63993 1.43999,-2.55997 3.95996,-3.99996 2.55997,-1.47998 5.63993,-1.47998 z m 0,18.59979 q 1.99998,0 3.59996,-0.95999 1.63998,-0.99999 2.55997,-2.67997 0.91999,-1.71998 0.91999,-3.83996 0,-2.11997 -0.91999,-3.83995 -0.91999,-1.71998 -2.55997,-2.67997 -1.59998,-0.99999 -3.59996,-0.99999 -1.99997,0 -3.63996,0.99999 -1.59998,0.95999 -2.55997,2.67997 -0.91999,1.71998 -0.91999,3.83995 0,2.11998 0.91999,3.83996 0.95999,1.67998 2.55997,2.67997 1.63999,0.95999 3.63996,0.95999 z"
         style="font-style:normal;font-variant:normal;font-weight:bold;font-stretch:normal;font-size:39.99954605px;font-family:Comfortaa;-inkscape-font-specification:'Comfortaa, Bold';font-variant-ligatures:normal;font-variant-caps:normal;font-variant-numeric:normal;font-feature-settings:normal;text-align:start;writing-mode:lr-tb;text-anchor:start;stroke-width:1.32184482px"
         id="path44153" />
      <path
         inkscape:connector-curvature="0"
         d="m 323.11123,134.27216 q 0.71999,0 1.19999,0.56 0.51999,0.55999 0.51999,1.43998 0,0.87999 -0.67999,1.43999 -0.64,0.55999 -1.67998,0.55999 h -0.72 q -1.95997,0 -3.59995,-0.99999 -1.59999,-1.03999 -2.51998,-2.79997 -0.91999,-1.75998 -0.91999,-3.95995 v -9.87989 h -1.83997 q -0.84,0 -1.35999,-0.47999 -0.51999,-0.48 -0.51999,-1.19999 0,-0.79999 0.51999,-1.27999 0.51999,-0.47999 1.35999,-0.47999 h 1.83997 v -5.75994 q 0,-0.87999 0.56,-1.43998 0.55999,-0.55999 1.43998,-0.55999 0.87999,0 1.43999,0.55999 0.55999,0.55999 0.55999,1.43998 v 5.75994 h 3.39996 q 0.83999,0 1.35999,0.47999 0.51999,0.48 0.51999,1.27999 0,0.71999 -0.51999,1.19999 -0.52,0.47999 -1.35999,0.47999 h -3.39996 v 9.87989 q 0,1.59998 0.87999,2.67997 0.87999,1.07998 2.15997,1.07998 z"
         style="font-style:normal;font-variant:normal;font-weight:bold;font-stretch:normal;font-size:39.99954605px;font-family:Comfortaa;-inkscape-font-specification:'Comfortaa, Bold';font-variant-ligatures:normal;font-variant-caps:normal;font-variant-numeric:normal;font-feature-settings:normal;text-align:start;writing-mode:lr-tb;text-anchor:start;stroke-width:1.32184482px"
         id="path44155" />
      <path
         inkscape:connector-curvature="0"
         d="m 332.27107,138.27212 q -0.87999,0 -1.47998,-0.55999 -0.56,-0.6 -0.56,-1.47999 v -17.7998 q 0,-0.91998 0.56,-1.47998 0.59999,-0.55999 1.47998,-0.55999 0.91999,0 1.47998,0.55999 0.56,0.56 0.56,1.47998 v 17.7998 q 0,0.87999 -0.56,1.47999 -0.55999,0.55999 -1.47998,0.55999 z m 0,-25.43971 q -1.07999,0 -1.87998,-0.75999 -0.75999,-0.79999 -0.75999,-1.87998 0,-1.07999 0.75999,-1.83998 0.79999,-0.79999 1.87998,-0.79999 1.07999,0 1.83998,0.79999 0.79999,0.75999 0.79999,1.83998 0,1.07999 -0.79999,1.87998 -0.75999,0.75999 -1.83998,0.75999 z"
         style="font-style:normal;font-variant:normal;font-weight:bold;font-stretch:normal;font-size:39.99954605px;font-family:Comfortaa;-inkscape-font-specification:'Comfortaa, Bold';font-variant-ligatures:normal;font-variant-caps:normal;font-variant-numeric:normal;font-feature-settings:normal;text-align:start;writing-mode:lr-tb;text-anchor:start;stroke-width:1.32184482px"
         id="path44157" />
      <path
         inkscape:connector-curvature="0"
         d="m 351.83079,138.43212 q -3.19996,0 -5.71993,-1.39999 -2.51998,-1.43998 -3.91996,-3.95995 -1.39998,-2.51997 -1.39998,-5.71994 0,-3.23996 1.39998,-5.75993 1.39998,-2.51997 3.91996,-3.91996 2.51997,-1.43998 5.71993,-1.43998 3.15996,0 5.63994,1.43998 2.51997,1.39999 3.91995,3.91996 1.43999,2.51997 1.43999,5.75993 0,3.19997 -1.39999,5.71994 -1.39998,2.51997 -3.91995,3.95995 -2.47998,1.39999 -5.67994,1.39999 z m 0,-3.59996 q 2.03998,0 3.63996,-0.95999 1.63998,-0.95999 2.51997,-2.63997 0.91999,-1.71998 0.91999,-3.87996 0,-2.15997 -0.91999,-3.87995 -0.87999,-1.71998 -2.51997,-2.67997 -1.59998,-0.95999 -3.63996,-0.95999 -2.03998,0 -3.67996,0.95999 -1.59998,0.95999 -2.51997,2.67997 -0.91999,1.71998 -0.91999,3.87995 0,2.15998 0.91999,3.87996 0.91999,1.67998 2.51997,2.63997 1.63998,0.95999 3.67996,0.95999 z"
         style="font-style:normal;font-variant:normal;font-weight:bold;font-stretch:normal;font-size:39.99954605px;font-family:Comfortaa;-inkscape-font-specification:'Comfortaa, Bold';font-variant-ligatures:normal;font-variant-caps:normal;font-variant-numeric:normal;font-feature-settings:normal;text-align:start;writing-mode:lr-tb;text-anchor:start;stroke-width:1.32184482px"
         id="path44159" />
      <path
         inkscape:connector-curvature="0"
         d="m 379.79044,116.19237 q 2.75997,0 4.95995,1.19999 2.19997,1.19998 3.43996,3.51996 1.23998,2.27997 1.23998,5.51993 v 9.83989 q 0,0.87999 -0.59999,1.47999 -0.55999,0.55999 -1.43998,0.55999 -0.87999,0 -1.47999,-0.55999 -0.55999,-0.6 -0.55999,-1.47999 v -9.83989 q 0,-3.23996 -1.75998,-4.87994 -1.71998,-1.67998 -4.59995,-1.67998 -1.67998,0 -3.07996,0.67999 -1.35999,0.67999 -2.15998,1.83998 -0.75999,1.15999 -0.75999,2.59997 v 11.27987 q 0,0.87999 -0.55999,1.47999 -0.56,0.55999 -1.47999,0.55999 -0.87999,0 -1.47998,-0.55999 -0.55999,-0.6 -0.55999,-1.47999 v -17.8398 q 0,-0.91998 0.55999,-1.47998 0.59999,-0.55999 1.47998,-0.55999 0.91999,0 1.47999,0.55999 0.55999,0.56 0.55999,1.47998 v 0.44 q 1.27999,-1.27999 3.03997,-1.95998 1.75998,-0.71999 3.75995,-0.71999 z"
         style="font-style:normal;font-variant:normal;font-weight:bold;font-stretch:normal;font-size:39.99954605px;font-family:Comfortaa;-inkscape-font-specification:'Comfortaa, Bold';font-variant-ligatures:normal;font-variant-caps:normal;font-variant-numeric:normal;font-feature-settings:normal;text-align:start;writing-mode:lr-tb;text-anchor:start;stroke-width:1.32184482px"
         id="path44161" />
      <path
         inkscape:connector-curvature="0"
         d="m 406.11012,116.23237 q 3.07996,0 5.55993,1.47998 2.51998,1.43999 3.95996,3.99996 1.47998,2.51997 1.47998,5.63993 v 8.9199 q 0,0.87999 -0.59999,1.47999 -0.55999,0.55999 -1.43998,0.55999 -0.87999,0 -1.47999,-0.55999 -0.55999,-0.6 -0.55999,-1.47999 v -1.47998 q -1.39999,1.71998 -3.39996,2.67997 -1.99998,0.95999 -4.31995,0.95999 -2.87997,0 -5.23994,-1.43999 -2.31998,-1.43998 -3.67996,-3.95995 -1.31999,-2.55997 -1.31999,-5.67994 0,-3.11996 1.43999,-5.63993 1.43998,-2.55997 3.95995,-3.99996 2.55997,-1.47998 5.63994,-1.47998 z m 0,18.59979 q 1.99997,0 3.59996,-0.95999 1.63998,-0.99999 2.55997,-2.67997 0.91999,-1.71998 0.91999,-3.83996 0,-2.11997 -0.91999,-3.83995 -0.91999,-1.71998 -2.55997,-2.67997 -1.59999,-0.99999 -3.59996,-0.99999 -1.99998,0 -3.63996,0.99999 -1.59998,0.95999 -2.55997,2.67997 -0.91999,1.71998 -0.91999,3.83995 0,2.11998 0.91999,3.83996 0.95999,1.67998 2.55997,2.67997 1.63998,0.95999 3.63996,0.95999 z"
         style="font-style:normal;font-variant:normal;font-weight:bold;font-stretch:normal;font-size:39.99954605px;font-family:Comfortaa;-inkscape-font-specification:'Comfortaa, Bold';font-variant-ligatures:normal;font-variant-caps:normal;font-variant-numeric:normal;font-feature-settings:normal;text-align:start;writing-mode:lr-tb;text-anchor:start;stroke-width:1.32184482px"
         id="path44163" />
      <path
         inkscape:connector-curvature="0"
         d="m 428.3898,138.27212 q -1.71998,0 -3.11996,-0.91999 -1.35998,-0.95999 -2.11998,-2.63997 -0.75999,-1.71998 -0.75999,-3.83996 v -21.83975 q 0,-0.87999 0.56,-1.43998 0.55999,-0.56 1.43998,-0.56 0.87999,0 1.43998,0.56 0.56,0.55999 0.56,1.43998 v 21.83975 q 0,1.47999 0.55999,2.43998 0.55999,0.95998 1.43998,0.95998 h 0.99999 q 0.79999,0 1.27999,0.56 0.51999,0.55999 0.51999,1.43998 0,0.87999 -0.75999,1.43999 -0.75999,0.55999 -1.95998,0.55999 z"
         style="font-style:normal;font-variant:normal;font-weight:bold;font-stretch:normal;font-size:39.99954605px;font-family:Comfortaa;-inkscape-font-specification:'Comfortaa, Bold';font-variant-ligatures:normal;font-variant-caps:normal;font-variant-numeric:normal;font-feature-settings:normal;text-align:start;writing-mode:lr-tb;text-anchor:start;stroke-width:1.32184482px"
         id="path44165" />
      <path
         inkscape:connector-curvature="0"
         d="m 449.34953,138.27212 q -0.87999,0 -1.47998,-0.59999 -0.55999,-0.6 -0.55999,-1.47999 v -27.07969 q 0,-0.87999 0.59999,-1.47998 0.59999,-0.6 1.43998,-0.6 0.87999,0 1.47999,0.6 0.59999,0.59999 0.59999,1.47998 v 24.99972 h 14.47983 q 0.87999,0 1.47999,0.59999 0.59999,0.59999 0.59999,1.47998 0,0.87999 -0.59999,1.47999 -0.6,0.59999 -1.47999,0.59999 z"
         style="font-style:normal;font-variant:normal;font-weight:bold;font-stretch:normal;font-size:39.99954605px;font-family:Comfortaa;-inkscape-font-specification:'Comfortaa, Bold';font-variant-ligatures:normal;font-variant-caps:normal;font-variant-numeric:normal;font-feature-settings:normal;text-align:start;writing-mode:lr-tb;text-anchor:start;stroke-width:1.32184482px"
         id="path44167" />
      <path
         inkscape:connector-curvature="0"
         d="m 482.50907,138.43212 q -3.19996,0 -5.71993,-1.39999 -2.51997,-1.43998 -3.91996,-3.95995 -1.39998,-2.51997 -1.39998,-5.71994 0,-3.23996 1.39998,-5.75993 1.39999,-2.51997 3.91996,-3.91996 2.51997,-1.43998 5.71993,-1.43998 3.15997,0 5.63994,1.43998 2.51997,1.39999 3.91996,3.91996 1.43998,2.51997 1.43998,5.75993 0,3.19997 -1.39999,5.71994 -1.39998,2.51997 -3.91995,3.95995 -2.47997,1.39999 -5.67994,1.39999 z m 0,-3.59996 q 2.03998,0 3.63996,-0.95999 1.63998,-0.95999 2.51997,-2.63997 0.91999,-1.71998 0.91999,-3.87996 0,-2.15997 -0.91999,-3.87995 -0.87999,-1.71998 -2.51997,-2.67997 -1.59998,-0.95999 -3.63996,-0.95999 -2.03997,0 -3.67995,0.95999 -1.59999,0.95999 -2.51998,2.67997 -0.91999,1.71998 -0.91999,3.87995 0,2.15998 0.91999,3.87996 0.91999,1.67998 2.51998,2.63997 1.63998,0.95999 3.67995,0.95999 z"
         style="font-style:normal;font-variant:normal;font-weight:bold;font-stretch:normal;font-size:39.99954605px;font-family:Comfortaa;-inkscape-font-specification:'Comfortaa, Bold';font-variant-ligatures:normal;font-variant-caps:normal;font-variant-numeric:normal;font-feature-settings:normal;text-align:start;writing-mode:lr-tb;text-anchor:start;stroke-width:1.32184482px"
         id="path44169" />
      <path
         inkscape:connector-curvature="0"
         d="m 509.50874,116.23237 q 3.15996,0 5.63993,1.43998 2.51998,1.39999 3.91996,3.91996 1.43998,2.51997 1.43998,5.75993 v 8.63991 q 0,3.15996 -1.39998,5.75993 -1.39998,2.59997 -3.95996,4.07995 -2.51997,1.51999 -5.71993,1.51999 -2.87997,0 -5.35994,-1.15999 -2.47997,-1.11999 -4.15995,-3.23996 -0.44,-0.56 -0.44,-1.11999 0,-0.83999 0.83999,-1.43998 0.56,-0.36 1.11999,-0.36 0.99999,0 1.63998,0.83999 1.07999,1.39998 2.71997,2.11998 1.63998,0.75999 3.71996,0.75999 1.95998,0 3.55996,-0.95999 1.59998,-0.91999 2.55997,-2.75997 0.95999,-1.79998 0.95999,-4.31995 v -1.95998 q -1.23999,2.19998 -3.27996,3.43996 -2.03998,1.23999 -4.59995,1.23999 -2.95997,0 -5.31994,-1.39999 -2.31998,-1.43998 -3.63996,-3.95995 -1.27999,-2.51997 -1.27999,-5.71994 0,-3.23996 1.39999,-5.75993 1.39998,-2.51997 3.91995,-3.91996 2.51997,-1.43998 5.71994,-1.43998 z m 0,18.59979 q 2.03998,0 3.63996,-0.95999 1.63998,-0.95999 2.51997,-2.63997 0.91999,-1.71998 0.91999,-3.87996 0,-2.15997 -0.91999,-3.87995 -0.87999,-1.71998 -2.51997,-2.67997 -1.59998,-0.95999 -3.63996,-0.95999 -2.03998,0 -3.67996,0.95999 -1.59998,0.95999 -2.51997,2.67997 -0.91999,1.71998 -0.91999,3.87995 0,2.15998 0.91999,3.87996 0.91999,1.67998 2.51997,2.63997 1.63998,0.95999 3.67996,0.95999 z"
         style="font-style:normal;font-variant:normal;font-weight:bold;font-stretch:normal;font-size:39.99954605px;font-family:Comfortaa;-inkscape-font-specification:'Comfortaa, Bold';font-variant-ligatures:normal;font-variant-caps:normal;font-variant-numeric:normal;font-feature-settings:normal;text-align:start;writing-mode:lr-tb;text-anchor:start;stroke-width:1.32184482px"
         id="path44171" />
      <path
         inkscape:connector-curvature="0"
         d="m 529.02849,138.27212 q -0.87999,0 -1.47999,-0.55999 -0.55999,-0.6 -0.55999,-1.47999 v -17.7998 q 0,-0.91998 0.55999,-1.47998 0.6,-0.55999 1.47999,-0.55999 0.91999,0 1.47998,0.55999 0.55999,0.56 0.55999,1.47998 v 17.7998 q 0,0.87999 -0.55999,1.47999 -0.55999,0.55999 -1.47998,0.55999 z m 0,-25.43971 q -1.07999,0 -1.87998,-0.75999 -0.75999,-0.79999 -0.75999,-1.87998 0,-1.07999 0.75999,-1.83998 0.79999,-0.79999 1.87998,-0.79999 1.07999,0 1.83998,0.79999 0.79999,0.75999 0.79999,1.83998 0,1.07999 -0.79999,1.87998 -0.75999,0.75999 -1.83998,0.75999 z"
         style="font-style:normal;font-variant:normal;font-weight:bold;font-stretch:normal;font-size:39.99954605px;font-family:Comfortaa;-inkscape-font-specification:'Comfortaa, Bold';font-variant-ligatures:normal;font-variant-caps:normal;font-variant-numeric:normal;font-feature-settings:normal;text-align:start;writing-mode:lr-tb;text-anchor:start;stroke-width:1.32184482px"
         id="path44173" />
      <path
         inkscape:connector-curvature="0"
         d="m 548.58818,138.43212 q -3.15997,0 -5.67994,-1.43999 -2.51997,-1.43998 -3.95996,-3.95995 -1.39998,-2.55997 -1.39998,-5.67994 0,-3.19996 1.35999,-5.71993 1.39998,-2.55997 3.87995,-3.95996 2.47997,-1.43998 5.59994,-1.43998 4.71994,0 7.83991,3.59996 0.39999,0.43999 0.39999,1.03999 0,0.87999 -0.87999,1.47998 -0.39999,0.28 -0.91999,0.28 -0.91998,0 -1.55998,-0.71999 -0.99999,-1.07999 -2.19997,-1.55999 -1.15999,-0.51999 -2.67997,-0.51999 -3.07997,0 -4.99995,2.07998 -1.91997,2.03997 -1.91997,5.43993 0,2.15998 0.87999,3.87996 0.91999,1.67998 2.51997,2.63997 1.63998,0.95999 3.71996,0.95999 2.71996,0 4.39995,-1.39999 0.75999,-0.55999 1.47998,-0.55999 0.55999,0 1.03999,0.36 0.75999,0.63999 0.75999,1.43998 0,0.59999 -0.48,1.07999 -2.87996,2.67997 -7.19991,2.67997 z"
         style="font-style:normal;font-variant:normal;font-weight:bold;font-stretch:normal;font-size:39.99954605px;font-family:Comfortaa;-inkscape-font-specification:'Comfortaa, Bold';font-variant-ligatures:normal;font-variant-caps:normal;font-variant-numeric:normal;font-feature-settings:normal;text-align:start;writing-mode:lr-tb;text-anchor:start;stroke-width:1.32184482px"
         id="path44175" />
    </g>
  </g>
</svg>
