<svg xmlns="http://www.w3.org/2000/svg" width="138mm" height="97.105" viewBox="0 0 138 25.692"><path d="M7.525 12.844l9.082 3.766-3.765 9.082-9.083-3.765z" fill="#becad9" paint-order="markers fill stroke"/><path d="M16.61 9.085l9.082 3.765-3.766 9.083-9.082-3.766z" fill="#a9e1cd" paint-order="markers fill stroke"/><path d="M12.85 0l9.083 3.766-3.766 9.082-9.082-3.766z" fill="#daeea0" paint-order="markers fill stroke"/><path d="M3.766 3.76l9.082 3.765-3.766 9.082L0 12.842z" fill="#a9e1cd" paint-order="markers fill stroke"/><path d="M9.082 16.607l9.085-3.76 3.76 9.086-9.085 3.759z" fill="#94dbdd" paint-order="markers fill stroke"/><path d="M12.848 7.525l9.085-3.76 3.76 9.085-9.086 3.76z" fill="#c9eab6" paint-order="markers fill stroke"/><path d="M3.766 3.76L12.85 0l3.76 9.085-9.085 3.76z" fill="#a9e1cd" paint-order="markers fill stroke"/><path d="M0 12.842l9.085-3.76 3.76 9.085-9.085 3.76z" fill="#94dbdd" paint-order="markers fill stroke"/><path d="M0 12.842l9.082 3.765 1.56-3.762-1.557-3.763z" fill="#62cac0" paint-order="markers fill stroke"/><path d="M12.85 0L9.086 9.082l3.762 1.56 3.763-1.557z" fill="#94d796" paint-order="markers fill stroke"/><path d="M25.692 12.85L16.61 9.085l-1.56 3.762 1.557 3.763z" fill="#8ad5a3" paint-order="markers fill stroke"/><path d="M12.842 25.692l3.765-9.082-3.762-1.56-3.763 1.558z" fill="#6ab9c4" paint-order="markers fill stroke"/><path d="M21.926 21.933l-3.759-9.085-3.763 1.557-1.56 3.762z" fill="#62cac0" paint-order="markers fill stroke"/><path d="M3.76 21.926l9.084-3.759-1.557-3.763-3.762-1.56z" fill="#78afc0" paint-order="markers fill stroke"/><path d="M3.765 3.76l3.76 9.084 3.763-1.557 1.56-3.762z" fill="#77d0b0" paint-order="markers fill stroke"/><path d="M21.933 3.765l-9.085 3.76 1.558 3.763 3.761 1.56z" fill="#b4e07f" paint-order="markers fill stroke"/><path d="M15.509 6.424l-2.661 1.101 1.101 2.661 2.661-1.101z" fill="#75cb7a" paint-order="markers fill stroke"/><path d="M19.268 15.509l-1.101-2.661-2.66 1.101 1.1 2.661z" fill="#49c1a5" paint-order="markers fill stroke"/><path d="M10.183 19.268l2.661-1.1-1.101-2.662-2.66 1.102z" fill="#409da9" paint-order="markers fill stroke"/><path d="M6.424 10.183l1.101 2.661 2.661-1.101-1.101-2.66z" fill="#40bcaa" paint-order="markers fill stroke"/><path d="M15.504 19.27l1.103-2.66-2.66-1.103-1.103 2.66z" fill="#49a7ab" paint-order="markers fill stroke"/><path d="M6.422 15.504l2.66 1.103 1.103-2.66-2.66-1.103z" fill="#54a1ad" paint-order="markers fill stroke"/><path d="M10.188 6.422l-1.103 2.66 2.66 1.103 1.103-2.66z" fill="#53c17d" paint-order="markers fill stroke"/><path d="M19.27 10.188l-2.66-1.103-1.103 2.66 2.66 1.103z" fill="#64c56a" paint-order="markers fill stroke"/><g aria-label="International Center for Computational Logic" style="line-height:125%;text-align:start" font-weight="700" font-size="40" font-family="Comfortaa" letter-spacing="0" word-spacing="0" stroke-width="1.322"><path d="M31.67 10.5q-.175 0-.295-.12t-.12-.296v-5.42q0-.184.12-.296.12-.12.296-.12.184 0 .296.12.12.112.12.296v5.42q0 .176-.12.296-.112.12-.296.12zM35.786 6.08q.553 0 .993.241.44.24.689.705.248.456.248 1.105v1.97q0 .175-.12.295-.112.112-.289.112-.176 0-.296-.112-.112-.12-.112-.296V8.13q0-.648-.352-.976-.344-.337-.92-.337-.337 0-.617.137-.273.136-.433.368-.152.232-.152.52V10.1q0 .176-.112.296-.112.112-.296.112-.176 0-.296-.112-.113-.12-.113-.296V6.53q0-.185.113-.297.12-.112.296-.112.184 0 .296.112.112.112.112.296v.088q.256-.256.609-.392.352-.144.752-.144zM40.934 9.7q.144 0 .24.112.105.112.105.288t-.137.288q-.128.112-.336.112h-.144q-.392 0-.72-.2-.32-.208-.505-.56-.184-.352-.184-.793V6.97h-.368q-.168 0-.273-.096-.104-.097-.104-.24 0-.16.104-.257.105-.096.273-.096h.368V5.128q0-.176.112-.288.112-.112.288-.112t.289.112q.112.112.112.288v1.153h.68q.168 0 .272.096.104.096.104.256 0 .144-.104.24-.104.097-.272.097h-.68v1.977q0 .32.176.537.176.216.432.216zM46.21 8.243q0 .152-.104.256-.104.096-.264.096H42.8q.088.56.504.905.425.344 1.033.344.24 0 .496-.088.265-.088.433-.216.112-.088.264-.088.152 0 .24.08.144.12.144.272 0 .144-.128.24-.272.216-.68.352-.4.136-.769.136-.657 0-1.177-.28-.52-.288-.817-.792-.288-.505-.288-1.145t.272-1.145q.28-.513.769-.793.496-.288 1.12-.288.617 0 1.066.272.448.272.688.76.24.49.24 1.122zm-1.993-1.466q-.585 0-.953.32-.36.321-.456.857h2.666q-.072-.536-.4-.856-.329-.32-.857-.32zM49.397 6.073q.424 0 .665.128.24.128.24.32 0 .056-.008.08-.072.257-.32.257-.04 0-.12-.016-.32-.057-.521-.057-.576 0-.929.265-.352.264-.352.712V10.1q0 .192-.104.296-.096.104-.296.104-.192 0-.297-.096-.104-.104-.104-.304V6.521q0-.192.104-.296.105-.104.297-.104.4 0 .4.4v.152q.24-.28.592-.44.353-.16.753-.16zM53.32 6.08q.553 0 .993.241.44.24.689.705.248.456.248 1.105v1.97q0 .175-.12.295-.112.112-.289.112-.176 0-.296-.112-.112-.12-.112-.296V8.13q0-.648-.352-.976-.344-.337-.921-.337-.336 0-.616.137-.273.136-.433.368-.152.232-.152.52V10.1q0 .176-.112.296-.112.112-.296.112-.176 0-.296-.112-.113-.12-.113-.296V6.53q0-.185.113-.297.12-.112.296-.112.184 0 .296.112.112.112.112.296v.088q.256-.256.609-.392.352-.144.752-.144zM58.588 6.089q.617 0 1.113.296.505.288.793.8.296.505.296 1.13V10.1q0 .176-.12.296-.112.112-.288.112t-.296-.112q-.113-.12-.113-.296v-.296q-.28.344-.68.536-.4.192-.865.192-.576 0-1.049-.288-.464-.288-.736-.792-.264-.513-.264-1.137 0-.625.288-1.13.288-.512.792-.8.513-.296 1.13-.296zm0 3.723q.4 0 .721-.192.328-.2.512-.537.185-.344.185-.768 0-.425-.185-.769-.184-.344-.512-.536-.32-.2-.72-.2-.4 0-.73.2-.32.192-.512.536-.184.344-.184.769 0 .424.184.768.193.337.513.537.328.192.728.192zM63.873 9.7q.144 0 .24.112.104.112.104.288t-.136.288q-.128.112-.337.112H63.6q-.392 0-.72-.2-.32-.208-.505-.56-.184-.352-.184-.793V6.97h-.368q-.168 0-.272-.096-.104-.097-.104-.24 0-.16.104-.257.104-.096.272-.096h.368V5.128q0-.176.112-.288.112-.112.289-.112.176 0 .288.112.112.112.112.288v1.153h.68q.169 0 .273.096.104.096.104.256 0 .144-.104.24-.104.097-.273.097h-.68v1.977q0 .32.176.537.176.216.432.216zM65.706 10.5q-.176 0-.296-.112-.112-.12-.112-.296V6.53q0-.184.112-.296.12-.112.296-.112.184 0 .296.112.112.112.112.296v3.563q0 .176-.112.296-.112.112-.296.112zm0-5.092q-.216 0-.376-.152-.152-.16-.152-.376t.152-.368q.16-.16.376-.16t.368.16q.16.152.16.368t-.16.376q-.152.152-.368.152zM69.621 10.532q-.64 0-1.145-.28-.504-.288-.784-.792-.28-.505-.28-1.145 0-.649.28-1.153.28-.505.784-.785.505-.288 1.145-.288.633 0 1.13.288.503.28.784.785.288.504.288 1.153 0 .64-.28 1.145-.28.504-.785.792-.496.28-1.137.28zm0-.72q.408 0 .729-.192.328-.192.504-.529.184-.344.184-.776 0-.433-.184-.777-.176-.344-.504-.536-.32-.193-.729-.193-.408 0-.736.193-.32.192-.505.536-.184.344-.184.777 0 .432.184.776.184.337.505.529.328.192.736.192zM75.218 6.08q.552 0 .992.241.44.24.689.705.248.456.248 1.105v1.97q0 .175-.12.295-.112.112-.288.112t-.296-.112q-.112-.12-.112-.296V8.13q0-.648-.353-.976-.344-.337-.92-.337-.337 0-.617.137-.272.136-.432.368-.152.232-.152.52V10.1q0 .176-.113.296-.112.112-.296.112-.176 0-.296-.112-.112-.12-.112-.296V6.53q0-.185.112-.297.12-.112.296-.112.184 0 .296.112.113.112.113.296v.088q.256-.256.608-.392.352-.144.753-.144zM80.486 6.089q.616 0 1.113.296.504.288.792.8.297.505.297 1.13V10.1q0 .176-.12.296-.113.112-.289.112t-.296-.112q-.112-.12-.112-.296v-.296q-.28.344-.68.536-.4.192-.865.192-.577 0-1.05-.288-.464-.288-.736-.792-.264-.513-.264-1.137 0-.625.288-1.13.289-.512.793-.8.512-.296 1.129-.296zm0 3.723q.4 0 .72-.192.329-.2.513-.537.184-.344.184-.768 0-.425-.184-.769-.184-.344-.513-.536-.32-.2-.72-.2-.4 0-.729.2-.32.192-.512.536-.184.344-.184.769 0 .424.184.768.192.337.512.537.329.192.729.192zM84.945 10.5q-.344 0-.624-.184-.272-.192-.424-.528-.153-.344-.153-.769V4.648q0-.176.113-.288.112-.113.288-.113t.288.113q.112.112.112.288v4.371q0 .296.112.489.112.192.288.192h.2q.16 0 .257.112.104.112.104.288t-.152.288q-.152.112-.393.112zM91.535 10.58q-.857 0-1.57-.424-.704-.424-1.113-1.16-.408-.737-.408-1.626 0-.88.408-1.61.409-.736 1.113-1.16.713-.433 1.57-.433.608 0 1.048.16.449.16.905.529.096.072.128.152.032.072.032.176 0 .16-.12.264-.112.104-.264.104-.152 0-.28-.104-.328-.28-.64-.4-.313-.128-.81-.128-.624 0-1.152.328-.52.328-.833.897-.304.56-.304 1.225 0 .672.304 1.233.312.56.833.889.528.328 1.153.328.768 0 1.473-.529.136-.096.264-.096.152 0 .248.112.104.105.104.28 0 .169-.128.297-.864.696-1.961.696zM98.484 8.243q0 .152-.104.256-.104.096-.264.096h-3.043q.089.56.505.905.424.344 1.033.344.24 0 .496-.088.264-.088.432-.216.113-.088.265-.088.152 0 .24.08.144.12.144.272 0 .144-.128.24-.272.216-.68.352-.401.136-.77.136-.656 0-1.176-.28-.52-.288-.817-.792-.288-.505-.288-1.145T94.6 7.17q.28-.513.769-.793.496-.288 1.12-.288.617 0 1.065.272.449.272.689.76.24.49.24 1.122zm-1.993-1.466q-.585 0-.953.32-.36.321-.457.857h2.667q-.072-.536-.4-.856-.329-.32-.857-.32zM101.703 6.08q.552 0 .993.241.44.24.688.705.248.456.248 1.105v1.97q0 .175-.12.295-.112.112-.288.112t-.296-.112q-.112-.12-.112-.296V8.13q0-.648-.353-.976-.344-.337-.92-.337-.337 0-.617.137-.272.136-.432.368-.152.232-.152.52V10.1q0 .176-.112.296-.113.112-.297.112-.176 0-.296-.112-.112-.12-.112-.296V6.53q0-.185.112-.297.12-.112.296-.112.184 0 .297.112.112.112.112.296v.088q.256-.256.608-.392.352-.144.753-.144zM106.85 9.7q.145 0 .241.112.104.112.104.288t-.136.288q-.128.112-.336.112h-.144q-.393 0-.721-.2-.32-.208-.504-.56-.185-.352-.185-.793V6.97h-.368q-.168 0-.272-.096-.104-.097-.104-.24 0-.16.104-.257.104-.096.272-.096h.368V5.128q0-.176.113-.288.112-.112.288-.112t.288.112q.112.112.112.288v1.153h.68q.169 0 .273.096.104.096.104.256 0 .144-.104.24-.104.097-.272.097h-.68v1.977q0 .32.175.537.176.216.433.216zM112.127 8.243q0 .152-.104.256-.104.096-.264.096h-3.043q.088.56.505.905.424.344 1.033.344.24 0 .496-.088.264-.088.432-.216.112-.088.264-.088.153 0 .24.08.145.12.145.272 0 .144-.128.24-.273.216-.68.352-.401.136-.77.136-.656 0-1.176-.28-.52-.288-.817-.792-.288-.505-.288-1.145t.272-1.145q.28-.513.769-.793.496-.288 1.12-.288.617 0 1.065.272.449.272.689.76.24.49.24 1.122zm-1.994-1.466q-.584 0-.952.32-.36.321-.457.857h2.666q-.072-.536-.4-.856-.328-.32-.857-.32zM115.314 6.073q.424 0 .664.128.24.128.24.32 0 .056-.008.08-.072.257-.32.257-.04 0-.12-.016-.32-.057-.52-.057-.577 0-.93.265-.351.264-.351.712V10.1q0 .192-.105.296-.096.104-.296.104-.192 0-.296-.096-.104-.104-.104-.304V6.521q0-.192.104-.296.104-.104.296-.104.4 0 .4.4v.152q.24-.28.593-.44.352-.16.753-.16zM33.064 15.107q-.448 0-.72.296-.273.297-.273.785v.216h.817q.168 0 .272.096.104.096.104.257 0 .144-.104.24t-.272.096h-.817v3.122q0 .184-.112.297-.112.112-.312.112-.16 0-.28-.112-.112-.113-.112-.297v-3.122h-.345q-.168 0-.272-.096-.104-.096-.104-.24 0-.16.104-.257.104-.096.272-.096h.345v-.136q0-.568.224-.993.232-.432.64-.664.417-.24.945-.24.176 0 .288.104.12.104.12.264 0 .16-.12.264-.112.104-.288.104zM35.938 20.656q-.64 0-1.145-.28-.504-.289-.784-.793-.28-.505-.28-1.145 0-.649.28-1.153t.784-.785q.505-.288 1.145-.288.633 0 1.13.288.504.28.784.785.288.504.288 1.153 0 .64-.28 1.145-.28.504-.785.792-.496.28-1.137.28zm0-.72q.409 0 .729-.193.328-.192.504-.528.184-.345.184-.777 0-.432-.184-.777-.176-.344-.504-.536-.32-.192-.729-.192-.408 0-.736.192-.32.192-.505.536-.184.345-.184.777 0 .432.184.777.184.336.505.528.328.192.736.192zM41.503 16.196q.424 0 .664.128.24.128.24.32 0 .057-.008.08-.072.257-.32.257-.04 0-.12-.016-.32-.056-.52-.056-.577 0-.929.264-.352.264-.352.712v2.338q0 .192-.104.297-.096.104-.297.104-.192 0-.296-.096-.104-.105-.104-.305v-3.579q0-.192.104-.296.104-.104.296-.104.4 0 .4.4v.153q.24-.28.593-.44.352-.16.753-.16zM48.476 20.704q-.856 0-1.569-.425-.705-.424-1.113-1.16-.408-.737-.408-1.626 0-.88.408-1.61.408-.736 1.113-1.16.713-.432 1.57-.432.608 0 1.048.16.449.16.905.528.096.072.128.152.032.072.032.176 0 .16-.12.265-.112.104-.264.104-.152 0-.28-.104-.329-.28-.641-.4-.312-.129-.809-.129-.624 0-1.153.328-.52.329-.832.897-.305.56-.305 1.225 0 .673.305 1.233.312.56.832.889.529.328 1.153.328.769 0 1.473-.528.137-.096.265-.096.152 0 .248.112.104.104.104.28 0 .168-.128.296-.865.697-1.962.697zM53.48 20.656q-.64 0-1.145-.28-.504-.289-.784-.793-.28-.505-.28-1.145 0-.649.28-1.153t.784-.785q.505-.288 1.145-.288.633 0 1.13.288.504.28.784.785.288.504.288 1.153 0 .64-.28 1.145-.28.504-.785.792-.496.28-1.137.28zm0-.72q.409 0 .729-.193.328-.192.504-.528.184-.345.184-.777 0-.432-.184-.777-.176-.344-.504-.536-.32-.192-.729-.192-.408 0-.736.192-.32.192-.505.536-.184.345-.184.777 0 .432.184.777.184.336.505.528.328.192.736.192zM61.503 16.204q.696 0 1.12.456.433.457.433 1.273v2.29q0 .176-.112.297-.112.112-.296.112-.177 0-.297-.112-.112-.12-.112-.297v-2.29q0-.488-.248-.736-.24-.256-.648-.256-.417 0-.689.288-.264.288-.264.737v2.257q0 .176-.112.297-.112.112-.297.112-.176 0-.296-.112-.112-.12-.112-.297v-2.29q0-.488-.248-.736-.24-.256-.649-.256-.424 0-.696.288-.264.288-.264.737v2.257q0 .176-.112.297-.113.112-.297.112-.176 0-.296-.112-.112-.12-.112-.297V16.66q0-.184.112-.296.12-.112.296-.112t.289.112q.112.104.12.28.208-.208.496-.32.288-.12.625-.12.408 0 .728.168.328.16.537.465.24-.297.6-.465.36-.168.8-.168zM66.61 16.212q.617 0 1.122.296.512.289.8.801.289.504.289 1.129 0 .624-.273 1.137-.264.504-.736.792-.465.289-1.041.289-.464 0-.865-.192-.4-.193-.68-.537v2.162q0 .184-.112.296-.113.112-.297.112-.176 0-.296-.112-.112-.112-.112-.296v-3.651q0-.625.288-1.129.296-.512.793-.8.504-.297 1.12-.297zm0 3.723q.401 0 .721-.192.329-.2.513-.536.192-.345.192-.77 0-.423-.192-.768-.184-.344-.513-.536-.32-.2-.72-.2-.4 0-.729.2-.32.192-.504.536-.184.345-.184.769 0 .424.184.769.184.336.504.536.328.192.729.192zM73.648 16.236q.185 0 .297.112.112.112.112.296v3.571q0 .176-.112.297-.112.112-.297.112-.176 0-.296-.112-.112-.12-.112-.297v-.088q-.256.256-.608.4-.353.137-.753.137-.552 0-.993-.24-.44-.24-.688-.697-.249-.464-.249-1.113v-1.97q0-.176.113-.288.12-.12.296-.12t.288.12q.12.112.12.288v1.97q0 .649.344.985.353.328.93.328.335 0 .608-.136.28-.136.432-.368.16-.233.16-.52v-2.259q0-.184.112-.296.12-.112.296-.112zM77.363 19.823q.144 0 .24.112.105.112.105.288t-.136.289q-.129.112-.337.112h-.144q-.392 0-.72-.2-.32-.209-.505-.561-.184-.352-.184-.793v-1.977h-.368q-.168 0-.273-.096-.104-.096-.104-.24 0-.16.104-.257.105-.096.273-.096h.368v-1.153q0-.176.112-.288.112-.112.288-.112t.289.112q.112.112.112.288v1.153h.68q.168 0 .272.096.104.096.104.257 0 .144-.104.24t-.272.096h-.68v1.977q0 .32.176.537.176.216.432.216zM80.694 16.212q.616 0 1.113.296.504.289.793.801.296.504.296 1.129v1.785q0 .176-.12.297-.112.112-.289.112-.176 0-.296-.112-.112-.12-.112-.297v-.296q-.28.344-.68.537-.4.192-.865.192-.577 0-1.049-.289-.464-.288-.737-.792-.264-.513-.264-1.137 0-.625.288-1.129.289-.512.793-.8.513-.297 1.129-.297zm0 3.723q.4 0 .72-.192.329-.2.513-.536.184-.345.184-.77 0-.423-.184-.768-.184-.344-.512-.536-.32-.2-.721-.2-.4 0-.729.2-.32.192-.512.536-.184.345-.184.769 0 .424.184.769.192.336.512.536.329.192.729.192zM85.978 19.823q.144 0 .24.112.104.112.104.288t-.136.289q-.128.112-.336.112h-.144q-.392 0-.72-.2-.32-.209-.505-.561-.184-.352-.184-.793v-1.977h-.368q-.169 0-.273-.096-.104-.096-.104-.24 0-.16.104-.257.104-.096.273-.096h.368v-1.153q0-.176.112-.288.112-.112.288-.112t.288.112q.113.112.113.288v1.153h.68q.168 0 .272.096.104.096.104.257 0 .144-.104.24t-.272.096h-.68v1.977q0 .32.176.537.176.216.432.216zM87.812 20.624q-.176 0-.297-.112-.112-.12-.112-.297v-3.563q0-.184.112-.296.12-.112.297-.112.184 0 .296.112.112.112.112.296v3.563q0 .176-.112.297-.112.112-.296.112zm0-5.092q-.217 0-.377-.153-.152-.16-.152-.376t.152-.368q.16-.16.377-.16.216 0 .368.16.16.152.16.368t-.16.376q-.152.153-.368.153zM91.727 20.656q-.64 0-1.145-.28-.505-.289-.785-.793-.28-.505-.28-1.145 0-.649.28-1.153t.785-.785q.504-.288 1.145-.288.632 0 1.129.288.504.28.784.785.289.504.289 1.153 0 .64-.28 1.145-.28.504-.785.792-.497.28-1.137.28zm0-.72q.408 0 .728-.193.329-.192.505-.528.184-.345.184-.777 0-.432-.184-.777-.176-.344-.505-.536-.32-.192-.728-.192-.409 0-.737.192-.32.192-.504.536-.184.345-.184.777 0 .432.184.777.184.336.504.528.328.192.737.192zM97.323 16.204q.553 0 .993.24.44.24.689.705.248.456.248 1.105v1.97q0 .175-.12.296-.112.112-.289.112-.176 0-.296-.112-.112-.12-.112-.297v-1.97q0-.648-.352-.976-.344-.336-.92-.336-.337 0-.617.136-.273.136-.433.368-.152.232-.152.52v2.258q0 .176-.112.297-.112.112-.296.112-.176 0-.296-.112-.112-.12-.112-.297v-3.57q0-.185.112-.297.12-.112.296-.112.184 0 .296.112.112.112.112.296v.089q.256-.257.609-.393.352-.144.752-.144zM102.591 16.212q.617 0 1.113.296.505.289.793.801.296.504.296 1.129v1.785q0 .176-.12.297-.112.112-.288.112t-.296-.112q-.112-.12-.112-.297v-.296q-.28.344-.681.537-.4.192-.865.192-.576 0-1.049-.289-.464-.288-.736-.792-.264-.513-.264-1.137 0-.625.288-1.129.288-.512.793-.8.512-.297 1.128-.297zm0 3.723q.4 0 .721-.192.328-.2.512-.536.185-.345.185-.77 0-.423-.185-.768-.184-.344-.512-.536-.32-.2-.72-.2-.4 0-.73.2-.32.192-.512.536-.184.345-.184.769 0 .424.184.769.193.336.513.536.328.192.728.192zM107.051 20.624q-.344 0-.624-.185-.273-.192-.425-.528-.152-.344-.152-.769v-4.371q0-.176.112-.288.112-.112.288-.112.177 0 .289.112.112.112.112.288v4.371q0 .297.112.489t.288.192h.2q.16 0 .256.112.104.112.104.288t-.152.289q-.152.112-.392.112zM111.246 20.624q-.176 0-.296-.12-.112-.12-.112-.297v-5.42q0-.176.12-.296t.288-.12q.176 0 .297.12.12.12.12.296v5.004h2.898q.176 0 .296.12t.12.296q0 .176-.12.297-.12.12-.296.12zM117.884 20.656q-.64 0-1.145-.28-.505-.289-.785-.793-.28-.505-.28-1.145 0-.649.28-1.153t.785-.785q.504-.288 1.145-.288.632 0 1.129.288.504.28.784.785.288.504.288 1.153 0 .64-.28 1.145-.28.504-.784.792-.497.28-1.137.28zm0-.72q.408 0 .728-.193.328-.192.505-.528.184-.345.184-.777 0-.432-.184-.777-.177-.344-.505-.536-.32-.192-.728-.192-.409 0-.737.192-.32.192-.504.536-.185.345-.185.777 0 .432.185.777.184.336.504.528.328.192.737.192zM123.288 16.212q.632 0 1.129.288.504.28.784.785.289.504.289 1.153v1.73q0 .632-.28 1.152-.28.52-.793.817-.505.304-1.145.304-.577 0-1.073-.232-.496-.224-.833-.649-.088-.112-.088-.224 0-.168.168-.288.113-.072.225-.072.2 0 .328.168.216.28.544.424.329.153.745.153.392 0 .713-.193.32-.184.512-.552.192-.36.192-.865v-.392q-.248.44-.656.688-.409.249-.921.249-.593 0-1.065-.28-.464-.289-.729-.793-.256-.505-.256-1.145 0-.649.28-1.153t.785-.785q.504-.288 1.145-.288zm0 3.723q.408 0 .729-.192.328-.192.504-.528.184-.345.184-.777 0-.432-.184-.777-.176-.344-.504-.536-.32-.192-.729-.192-.408 0-.737.192-.32.192-.504.536-.184.345-.184.777 0 .432.184.777.184.336.504.528.329.192.737.192zM127.195 20.624q-.176 0-.296-.112-.112-.12-.112-.297v-3.563q0-.184.112-.296.12-.112.296-.112.184 0 .296.112.112.112.112.296v3.563q0 .176-.112.297-.112.112-.296.112zm0-5.092q-.216 0-.376-.153-.152-.16-.152-.376t.152-.368q.16-.16.376-.16t.368.16q.16.152.16.368t-.16.376q-.152.153-.368.153zM131.11 20.656q-.632 0-1.137-.289-.504-.288-.792-.792-.28-.513-.28-1.137 0-.64.272-1.145.28-.512.776-.793.497-.288 1.121-.288.945 0 1.57.72.08.089.08.209 0 .176-.177.296-.08.056-.184.056-.184 0-.312-.144-.2-.216-.44-.312-.233-.104-.537-.104-.616 0-1 .416-.385.408-.385 1.089 0 .432.176.777.184.336.505.528.328.192.744.192.545 0 .88-.28.153-.112.297-.112.112 0 .208.072.152.128.152.288 0 .12-.096.216-.576.537-1.44.537z" style="-inkscape-font-specification:'Comfortaa, Bold';font-variant-ligatures:normal;font-variant-caps:normal;font-variant-numeric:normal;font-feature-settings:normal;text-align:start"/></g></svg>