<?xml version="1.0" encoding="UTF-8" standalone="no"?>
<!-- Created with Inkscape (http://www.inkscape.org/) -->

<svg
   width="83.830231mm"
   height="36.0807mm"
   viewBox="0 0 83.830231 36.0807"
   version="1.1"
   id="svg103483"
   inkscape:version="1.1.2 (0a00cf5339, 2022-02-04)"
   sodipodi:docname="nemo-logo-rusty.svg"
   xmlns:inkscape="http://www.inkscape.org/namespaces/inkscape"
   xmlns:sodipodi="http://sodipodi.sourceforge.net/DTD/sodipodi-0.dtd"
   xmlns:xlink="http://www.w3.org/1999/xlink"
   xmlns="http://www.w3.org/2000/svg"
   xmlns:svg="http://www.w3.org/2000/svg">
  <sodipodi:namedview
     id="namedview103485"
     pagecolor="#ffffff"
     bordercolor="#666666"
     borderopacity="1.0"
     inkscape:pageshadow="2"
     inkscape:pageopacity="0.0"
     inkscape:pagecheckerboard="0"
     inkscape:document-units="mm"
     showgrid="false"
     fit-margin-top="0"
     fit-margin-left="0"
     fit-margin-right="0"
     fit-margin-bottom="0"
     inkscape:zoom="0.80087682"
     inkscape:cx="180.42725"
     inkscape:cy="262.83692"
     inkscape:window-width="1917"
     inkscape:window-height="1126"
     inkscape:window-x="0"
     inkscape:window-y="0"
     inkscape:window-maximized="1"
     inkscape:current-layer="layer1" />
  <defs
     id="defs103480">
    <linearGradient
       inkscape:collect="always"
       xlink:href="#linearGradient11096"
       id="linearGradient60560"
       gradientUnits="userSpaceOnUse"
       gradientTransform="matrix(0.26458333,0,0,0.26458333,-347.28065,205.77506)"
       x1="1576.7319"
       y1="-386.45694"
       x2="1630.4186"
       y2="-451.53302" />
    <linearGradient
       inkscape:collect="always"
       id="linearGradient11096">
      <stop
         style="stop-color:#18434e;stop-opacity:1"
         offset="0"
         id="stop11090" />
      <stop
         style="stop-color:#30869c;stop-opacity:1"
         offset="0.43461835"
         id="stop11092" />
      <stop
         style="stop-color:#9c6f30;stop-opacity:1"
         offset="1"
         id="stop11094" />
    </linearGradient>
    <linearGradient
       inkscape:collect="always"
       xlink:href="#linearGradient186108"
       id="linearGradient60558"
       gradientUnits="userSpaceOnUse"
       gradientTransform="translate(-402.07286,37.77895)"
       x1="1361.7065"
       y1="-384.93286"
       x2="1359.9717"
       y2="-463.83353" />
    <linearGradient
       inkscape:collect="always"
       id="linearGradient186108">
      <stop
         style="stop-color:#18434e;stop-opacity:1"
         offset="0"
         id="stop186104" />
      <stop
         style="stop-color:#30869c;stop-opacity:1"
         offset="0.5"
         id="stop186398" />
      <stop
         style="stop-color:#9c6f30;stop-opacity:1"
         offset="1"
         id="stop186106" />
    </linearGradient>
    <linearGradient
       inkscape:collect="always"
       xlink:href="#linearGradient186108"
       id="linearGradient103692"
       gradientUnits="userSpaceOnUse"
       gradientTransform="translate(-402.07286,37.77895)"
       x1="1361.7065"
       y1="-384.93286"
       x2="1359.9717"
       y2="-463.83353" />
    <linearGradient
       inkscape:collect="always"
       xlink:href="#linearGradient186108"
       id="linearGradient103694"
       gradientUnits="userSpaceOnUse"
       gradientTransform="translate(-402.07286,37.77895)"
       x1="1361.7065"
       y1="-384.93286"
       x2="1359.9717"
       y2="-463.83353" />
    <linearGradient
       inkscape:collect="always"
       xlink:href="#linearGradient186108"
       id="linearGradient103696"
       gradientUnits="userSpaceOnUse"
       gradientTransform="translate(-402.07286,37.77895)"
       x1="1361.7065"
       y1="-384.93286"
       x2="1359.9717"
       y2="-463.83353" />
    <linearGradient
       inkscape:collect="always"
       xlink:href="#linearGradient186108"
       id="linearGradient103698"
       gradientUnits="userSpaceOnUse"
       gradientTransform="translate(-402.07286,37.77895)"
       x1="1361.7065"
       y1="-384.93286"
       x2="1359.9717"
       y2="-463.83353" />
  </defs>
  <g
     inkscape:label="Layer 1"
     inkscape:groupmode="layer"
     id="layer1"
     transform="translate(-57.253082,-78.914642)">
    <path
       id="path60524"
       style="color:#000000;fill:url(#linearGradient60560);fill-opacity:1;stroke-width:0.264583;stroke-miterlimit:6;-inkscape-stroke:none"
       d="m 74.155853,84.19396 c -0.121074,0.0116 -0.236723,0.0827 -0.296122,0.20774 l -0.544671,1.14308 c -0.112845,0.0205 -0.225134,0.0418 -0.33692,0.0656 l -0.935858,-0.85111 c -0.204629,-0.18648 -0.5343,-0.0876 -0.602033,0.18086 l -0.312129,1.23145 c -0.104881,0.0416 -0.20918,0.0836 -0.312632,0.12816 L 69.727178,85.645 c -0.237093,-0.14297 -0.540967,0.0186 -0.555017,0.29507 l -0.06562,1.27279 c -0.09353,0.0604 -0.186294,0.12197 -0.278025,0.18501 l -1.198906,-0.4315 c -0.260429,-0.094 -0.526944,0.12398 -0.48678,0.3979 l 0.183462,1.26091 c -0.08006,0.0773 -0.158856,0.15552 -0.236697,0.23513 l -1.259866,-0.18914 c -0.273738,-0.0414 -0.492787,0.2239 -0.399971,0.48473 l 0.424789,1.19682 c -0.06432,0.0925 -0.126418,0.18665 -0.188119,0.28112 l -1.26918,0.0605 c -0.276569,0.0128 -0.439076,0.31576 -0.297127,0.55346 l 0.646986,1.08675 c -0.04561,0.1048 -0.08811,0.21135 -0.130731,0.31781 l -1.229386,0.30541 c -0.268737,0.0665 -0.369544,0.39608 -0.183965,0.60151 l 0.847487,0.94 c -0.02408,0.11143 -0.04577,0.2237 -0.06667,0.33641 l -1.146175,0.54002 C 62.58708,95.4934 62.552525,95.8357 62.774617,96.001 l 1.015444,0.75757 c -0.0026,0.11462 -0.0034,0.22914 -0.0026,0.34314 l -1.017508,0.75189 c -0.222832,0.16431 -0.190129,0.507 0.05993,0.6258 l 1.143609,0.54467 c 0.02064,0.11283 0.0418,0.22565 0.06562,0.33745 l -0.851111,0.93586 c -0.186479,0.20462 -0.08758,0.5343 0.180869,0.60203 l 1.23145,0.31161 c 0.04162,0.10488 0.08356,0.2097 0.128164,0.31315 l -0.654738,1.08831 c -0.14298,0.23708 0.01852,0.54043 0.295064,0.55449 l 1.272804,0.0661 c 0.06043,0.0935 0.121973,0.18629 0.184997,0.27802 l -0.431509,1.1989 c -0.09395,0.26041 0.123481,0.52694 0.397404,0.48679 l 1.261428,-0.18397 c 0.07731,0.0801 0.155522,0.15882 0.235108,0.23668 l -0.189124,1.26039 c -0.04138,0.27374 0.223891,0.49228 0.484717,0.39946 l 1.196843,-0.42427 c 0.09247,0.0643 0.186637,0.1264 0.281119,0.1881 l 0.06046,1.26918 c 0.0127,0.27655 0.315753,0.43906 0.553455,0.29714 l 1.08675,-0.64751 c 0.104801,0.0456 0.211349,0.0886 0.317817,0.13126 l 0.305409,1.22938 c 0.06654,0.26874 0.396054,0.36903 0.601503,0.18345 l 0.939986,-0.84697 c 0.111416,0.0241 0.223705,0.0453 0.336417,0.0661 l 0.539512,1.1467 c 0.117713,0.25059 0.460481,0.28513 0.625793,0.0631 l 0.757581,-1.01596 c 0.114618,0.002 0.228627,0.004 0.342609,0.002 l 0.752422,1.01752 c 0.164306,0.22281 0.506995,0.19011 0.625793,-0.0599 l 0.544671,-1.1436 c 0.112845,-0.0205 0.225663,-0.0413 0.337449,-0.0651 l 0.935858,0.85111 c 0.20462,0.18647 0.53429,0.0871 0.60203,-0.18138 l 0.3116,-1.23145 c 0.10488,-0.0416 0.20971,-0.0836 0.31316,-0.12816 l 1.08831,0.65474 c 0.23709,0.14297 0.54044,-0.0186 0.55449,-0.29507 l 0.0661,-1.27279 c 0.0935,-0.0604 0.18577,-0.12145 0.2775,-0.18449 l 1.19941,0.43098 c 0.26043,0.094 0.52697,-0.12347 0.4868,-0.39739 l -0.18396,-1.26091 c 0.0801,-0.0773 0.15883,-0.15603 0.23667,-0.23564 l 1.26039,0.18914 c 0.27374,0.0414 0.49226,-0.2239 0.39945,-0.48473 l -0.42426,-1.19683 c 0.0643,-0.0925 0.12641,-0.18664 0.18811,-0.28112 l 1.26916,-0.0599 c 0.27657,-0.0128 0.4391,-0.31627 0.29715,-0.55397 l -0.64751,-1.08676 c 0.0456,-0.10479 0.0886,-0.21134 0.13126,-0.31781 l 1.22938,-0.3054 c 0.26874,-0.0665 0.36902,-0.39607 0.18344,-0.60152 l -0.84696,-0.93999 c 0.0241,-0.11144 0.0452,-0.22371 0.0662,-0.33641 l 1.1467,-0.53951 c 0.25059,-0.11769 0.28461,-0.4605 0.0625,-0.6258 l -1.01544,-0.75757 c 0.003,-0.11462 0.003,-0.22862 0.003,-0.34262 l 1.01751,-0.75241 c 0.22283,-0.16432 0.1901,-0.50701 -0.0599,-0.6258 l -1.14361,-0.54467 c -0.0206,-0.11283 -0.0413,-0.22565 -0.0651,-0.33745 l 0.85112,-0.93534 c 0.18647,-0.20463 0.0876,-0.53482 -0.18087,-0.60255 l -1.23143,-0.31161 c -0.0417,-0.10488 -0.0836,-0.20971 -0.12816,-0.31315 l 0.65421,-1.08831 c 0.14298,-0.23708 -0.018,-0.54044 -0.29454,-0.55449 l -1.2728,-0.0661 c -0.0604,-0.0935 -0.12197,-0.18577 -0.185,-0.2775 l 0.43149,-1.19941 c 0.0939,-0.26041 -0.12399,-0.52694 -0.39791,-0.48679 l -1.2609,0.18397 c -0.0773,-0.0801 -0.15605,-0.15882 -0.23564,-0.23668 l 0.18913,-1.26039 c 0.0414,-0.27374 -0.22337,-0.49228 -0.48419,-0.39946 l -1.19735,0.42427 c -0.0925,-0.0643 -0.18663,-0.1264 -0.28112,-0.18811 l -0.06,-1.26865 c -0.0127,-0.27655 -0.31628,-0.43958 -0.55399,-0.29766 l -1.08675,0.64751 c -0.1048,-0.0456 -0.21082,-0.0886 -0.31728,-0.13126 l -0.30591,-1.22887 c -0.0665,-0.26873 -0.39556,-0.36954 -0.60101,-0.18396 l -0.940003,0.84697 c -0.111416,-0.0241 -0.223678,-0.0453 -0.336391,-0.0661 l -0.540041,-1.14619 c -0.05884,-0.12529 -0.17354,-0.1971 -0.294534,-0.20929 -0.120967,-0.0122 -0.248073,0.0352 -0.330729,0.14625 l -0.757582,1.01544 c -0.114617,-0.002 -0.229155,-0.004 -0.343138,-0.002 l -0.751893,-1.0175 c -0.08215,-0.11141 -0.209126,-0.15891 -0.3302,-0.14728 z m 1.207161,3.35896 c 0.318268,-1e-4 0.639551,0.0155 0.963242,0.0481 0.804281,0.081 1.574192,0.2606 2.299066,0.52504 -0.117735,0.12022 -0.0193,0.0187 -0.178774,0.1819 -0.556975,0.60939 -0.867172,1.40427 -0.870241,2.22983 7.9e-5,1.23736 0.677968,2.31458 1.681025,2.88665 l -0.55708,4.52531 a 3.3235169,3.3235169 0 0 0 -0.442326,0.0858 l -3.588411,-3.93568 a 3.3235169,3.3235169 0 0 0 0.320913,-1.41852 3.3235169,3.3235169 0 0 0 -3.323325,-3.32382 3.3235169,3.3235169 0 0 0 -3.323828,3.32382 3.3235169,3.3235169 0 0 0 0.972026,2.31873 l -0.630952,5.12423 c -0.422275,0.14706 -0.815261,0.3758 -1.150832,0.68264 -0.769276,0.74452 -0.434181,0.42229 -0.496093,0.48421 -0.814361,-1.56768 -1.197505,-3.38336 -1.006661,-5.27823 0.48903,-4.85525 4.558163,-8.4583 9.332251,-8.45995 z m 5.536588,1.62419 a 1.3601922,1.3601922 0 0 1 1.36015,1.36013 1.3601922,1.3601922 0 0 1 -1.36015,1.36064 1.3601922,1.3601922 0 0 1 -1.36011,-1.36064 1.3601922,1.3601922 0 0 1 1.36011,-1.36013 z m -9.232499,2.14406 a 1.3601922,1.3601922 0 0 1 1.360117,1.36012 1.3601922,1.3601922 0 0 1 -1.360117,1.36013 1.3601922,1.3601922 0 0 1 -1.360117,-1.36013 1.3601922,1.3601922 0 0 1 1.360117,-1.36012 z m 11.989959,1.15393 c 0.8663,1.5997 1.27776,3.46919 1.08109,5.4219 -0.52162,5.17893 -5.11709,8.9335 -10.29602,8.41188 -0.863044,-0.0869 -1.684946,-0.28949 -2.455677,-0.58652 0.120385,-0.1229 0.0645,-0.0643 0.229446,-0.23306 0.556948,-0.6094 0.867172,-1.40428 0.870241,-2.22984 -7.9e-5,-1.21259 -0.651589,-2.27061 -1.621604,-2.85099 l 0.547237,-4.44262 a 3.3235169,3.3235169 0 0 0 0.502815,-0.0822 l 3.616854,3.96669 a 3.3235169,3.3235169 0 0 0 -0.304906,1.37201 3.3235169,3.3235169 0 0 0 3.323324,3.32382 3.3235169,3.3235169 0 0 0 3.32383,-3.32382 3.3235169,3.3235169 0 0 0 -1.06402,-2.41123 l 0.6351,-5.16092 c 0.39701,-0.14777 0.76621,-0.36918 1.08416,-0.65991 0.81875,-0.79239 0.48744,-0.47371 0.52813,-0.51522 z m -4.5072,7.38715 a 1.3601922,1.3601922 0 0 1 1.36062,1.36013 1.3601922,1.3601922 0 0 1 -1.36062,1.36063 1.3601922,1.3601922 0 0 1 -1.360142,-1.36063 1.3601922,1.3601922 0 0 1 1.360142,-1.36013 z m -9.387045,2.03709 a 1.3601922,1.3601922 0 0 1 1.360144,1.36012 1.3601922,1.3601922 0 0 1 -1.360144,1.36064 1.3601922,1.3601922 0 0 1 -1.360117,-1.36064 1.3601922,1.3601922 0 0 1 1.360117,-1.36012 z" />
    <g
       aria-label="Nemo"
       id="text60528"
       style="font-weight:bold;font-size:49.882px;line-height:1.25;font-family:Comfortaa;-inkscape-font-specification:'Comfortaa, Bold';letter-spacing:0px;word-spacing:0px;fill:url(#linearGradient60558)"
       transform="matrix(0.26458333,0,0,0.26458333,-140.35721,195.77938)">
      <path
         d="m 884.51277,-367.38925 q -1.0974,0 -1.84563,-0.69835 -0.69835,-0.74823 -0.69835,-1.89552 v -33.77011 q 0,-1.14729 0.69835,-1.84563 0.74823,-0.74823 1.84563,-0.74823 0.5487,0 1.09741,0.29929 0.5487,0.24941 0.89787,0.64846 l 21.74855,28.93156 v -27.28545 q 0,-1.14729 0.74823,-1.84563 0.74823,-0.74823 1.84564,-0.74823 1.0974,0 1.79575,0.74823 0.74823,0.69834 0.74823,1.84563 v 33.77011 q 0,1.14729 -0.74823,1.89552 -0.69835,0.69835 -1.79575,0.69835 -0.5487,0 -1.14729,-0.19953 -0.5487,-0.24941 -0.84799,-0.69835 l -21.74855,-28.93156 v 27.23557 q 0,1.09741 -0.74823,1.84564 -0.69835,0.74823 -1.84564,0.74823 z"
         id="path61004"
         style="fill:url(#linearGradient103692)" />
      <path
         d="m 947.36409,-381.45598 q 0,0.94776 -0.64847,1.59623 -0.64846,0.59858 -1.6461,0.59858 h -18.95516 q 0.5487,3.49174 3.14256,5.63667 2.64375,2.14492 6.43478,2.14492 1.49646,0 3.09269,-0.5487 1.6461,-0.5487 2.69362,-1.34681 0.69835,-0.5487 1.64611,-0.5487 0.94776,0 1.49646,0.49882 0.89788,0.74823 0.89788,1.69598 0,0.89788 -0.79812,1.49646 -1.69598,1.34682 -4.23997,2.19481 -2.4941,0.848 -4.78867,0.848 -4.09032,0 -7.33265,-1.74587 -3.24233,-1.79576 -5.08797,-4.93832 -1.79575,-3.14257 -1.79575,-7.13313 0,-3.99056 1.69599,-7.13312 1.74587,-3.19245 4.78867,-4.93832 3.09269,-1.79575 6.98348,-1.79575 3.84092,0 6.63431,1.69598 2.79339,1.69599 4.28985,4.73879 1.49646,3.04281 1.49646,6.98348 z m -12.42062,-9.1284 q -3.64138,0 -5.93596,1.99528 -2.24469,1.99528 -2.84327,5.33737 h 16.61071 q -0.44894,-3.34209 -2.4941,-5.33737 -2.04517,-1.99528 -5.33738,-1.99528 z"
         id="path61006"
         style="fill:url(#linearGradient103694)" />
      <path
         d="m 982.53082,-394.92412 q 4.33974,0 6.98348,2.84328 2.69363,2.84327 2.69363,7.93124 v 14.26625 q 0,1.0974 -0.69835,1.84563 -0.69835,0.69835 -1.84563,0.69835 -1.09741,0 -1.84564,-0.69835 -0.69834,-0.74823 -0.69834,-1.84563 v -14.26625 q 0,-3.04281 -1.54635,-4.58915 -1.49646,-1.59622 -4.04044,-1.59622 -2.59386,0 -4.28985,1.79575 -1.64611,1.79575 -1.64611,4.58914 v 14.06673 q 0,1.0974 -0.69834,1.84563 -0.69835,0.69835 -1.84564,0.69835 -1.0974,0 -1.84563,-0.69835 -0.69835,-0.74823 -0.69835,-1.84563 v -14.26625 q 0,-3.04281 -1.54634,-4.58915 -1.49646,-1.59622 -4.04044,-1.59622 -2.64375,0 -4.33974,1.79575 -1.6461,1.79575 -1.6461,4.58914 v 14.06673 q 0,1.0974 -0.69835,1.84563 -0.69835,0.69835 -1.84564,0.69835 -1.0974,0 -1.84563,-0.69835 -0.69835,-0.74823 -0.69835,-1.84563 v -22.19749 q 0,-1.14729 0.69835,-1.84564 0.74823,-0.69834 1.84563,-0.69834 1.09741,0 1.79576,0.69834 0.69834,0.64847 0.74823,1.74587 1.29693,-1.29693 3.09268,-1.99528 1.79575,-0.74823 3.8908,-0.74823 2.54398,0 4.53926,1.04753 2.04516,0.99764 3.34209,2.89315 1.49646,-1.84563 3.74115,-2.89315 2.24469,-1.04753 4.9882,-1.04753 z"
         id="path61008"
         style="fill:url(#linearGradient103696)" />
      <path
         d="m 1013.0087,-367.18972 q -3.9906,0 -7.1331,-1.74587 -3.1426,-1.79576 -4.8885,-4.93832 -1.74583,-3.14257 -1.74583,-7.13313 0,-4.04044 1.74583,-7.18301 1.7459,-3.14256 4.8885,-4.88843 3.1425,-1.79575 7.1331,-1.79575 3.9407,0 7.0334,1.79575 3.1425,1.74587 4.8884,4.88843 1.7958,3.14257 1.7958,7.18301 0,3.99056 -1.7459,7.13313 -1.7459,3.14256 -4.8884,4.93832 -3.0927,1.74587 -7.0833,1.74587 z m 0,-4.48938 q 2.544,0 4.5393,-1.19717 2.0451,-1.19717 3.1425,-3.29221 1.1473,-2.14493 1.1473,-4.83856 0,-2.69363 -1.1473,-4.83855 -1.0974,-2.14493 -3.1425,-3.3421 -1.9953,-1.19716 -4.5393,-1.19716 -2.544,0 -4.5891,1.19716 -1.9953,1.19717 -3.1426,3.3421 -1.1473,2.14492 -1.1473,4.83855 0,2.69363 1.1473,4.83856 1.1473,2.09504 3.1426,3.29221 2.0451,1.19717 4.5891,1.19717 z"
         id="path61010"
         style="fill:url(#linearGradient103698)" />
    </g>
    <g
       aria-label="Graph Rule Engine"
       id="text60532"
       style="font-weight:bold;font-size:15.2297px;line-height:1.25;font-family:Comfortaa;-inkscape-font-specification:'Comfortaa, Bold';letter-spacing:0px;word-spacing:0px;fill:#1d505d;stroke-width:0.999996"
       transform="matrix(0.26458333,0,0,0.26458333,-140.35721,195.77938)">
      <path
         d="m 889.39132,-350.43909 q 0.33506,0 0.54827,0.22845 0.22845,0.21322 0.22845,0.5635 v 3.6399 q 0,0.36551 -0.24368,0.5635 -1.59912,1.32498 -3.73127,1.32498 -1.62958,0 -2.98502,-0.80717 -1.34022,-0.80718 -2.11693,-2.20831 -0.77672,-1.40113 -0.77672,-3.09163 0,-1.67527 0.77672,-3.06117 0.77671,-1.40113 2.11693,-2.20831 1.35544,-0.8224 2.98502,-0.8224 1.15745,0 1.99509,0.30459 0.85286,0.3046 1.72095,1.00516 0.18276,0.13707 0.24368,0.28937 0.0609,0.13707 0.0609,0.33505 0,0.3046 -0.22845,0.50258 -0.21321,0.19799 -0.51781,0.19799 -0.27413,0 -0.51781,-0.19799 -0.62442,-0.53304 -1.21837,-0.76148 -0.59396,-0.24368 -1.5382,-0.24368 -1.18792,0 -2.19308,0.62442 -0.98993,0.62442 -1.58389,1.70573 -0.57873,1.06608 -0.57873,2.33014 0,1.27929 0.57873,2.34537 0.59396,1.06608 1.58389,1.6905 1.00516,0.62442 2.19308,0.62442 1.27929,0 2.45198,-0.76149 v -2.71088 h -2.1017 q -0.35028,0 -0.57873,-0.19799 -0.21321,-0.19799 -0.21321,-0.50258 0,-0.30459 0.21321,-0.50258 0.22845,-0.19799 0.57873,-0.19799 z"
         id="path61031" />
      <path
         d="m 896.62541,-352.69308 q 0.80717,0 1.26406,0.24367 0.45689,0.24368 0.45689,0.60919 0,0.10661 -0.0152,0.1523 -0.13706,0.48735 -0.60918,0.48735 -0.0761,0 -0.22845,-0.0305 -0.60919,-0.10661 -0.98993,-0.10661 -1.09654,0 -1.76664,0.50258 -0.67011,0.50258 -0.67011,1.35545 v 4.44707 q 0,0.36551 -0.19799,0.5635 -0.18275,0.19798 -0.5635,0.19798 -0.36551,0 -0.5635,-0.18275 -0.19798,-0.19799 -0.19798,-0.57873 v -6.80768 q 0,-0.36551 0.19798,-0.5635 0.19799,-0.19798 0.5635,-0.19798 0.76149,0 0.76149,0.76148 v 0.28937 q 0.45689,-0.53304 1.127,-0.83764 0.6701,-0.30459 1.43159,-0.30459 z"
         id="path61033" />
      <path
         d="m 903.11322,-352.66262 q 1.17269,0 2.11693,0.5635 0.95947,0.54827 1.50774,1.52297 0.5635,0.95947 0.5635,2.14738 v 3.39623 q 0,0.33505 -0.22845,0.5635 -0.21322,0.21321 -0.54827,0.21321 -0.33505,0 -0.5635,-0.21321 -0.21321,-0.22845 -0.21321,-0.5635 v -0.5635 q -0.53304,0.65488 -1.29453,1.02039 -0.76148,0.36551 -1.64481,0.36551 -1.09653,0 -1.99509,-0.54827 -0.88332,-0.54827 -1.40113,-1.50774 -0.50258,-0.9747 -0.50258,-2.16262 0,-1.18791 0.54827,-2.14738 0.54827,-0.9747 1.50774,-1.52297 0.9747,-0.5635 2.14739,-0.5635 z m 0,7.08181 q 0.76148,0 1.37067,-0.36551 0.62442,-0.38075 0.9747,-1.02039 0.35029,-0.65488 0.35029,-1.46206 0,-0.80717 -0.35029,-1.46205 -0.35028,-0.65487 -0.9747,-1.02039 -0.60919,-0.38074 -1.37067,-0.38074 -0.76149,0 -1.3859,0.38074 -0.60919,0.36552 -0.9747,1.02039 -0.35029,0.65488 -0.35029,1.46205 0,0.80718 0.35029,1.46206 0.36551,0.63964 0.9747,1.02039 0.62441,0.36551 1.3859,0.36551 z"
         id="path61035" />
      <path
         d="m 913.80446,-352.66262 q 1.17268,0 2.13216,0.5635 0.9747,0.54827 1.52297,1.52297 0.54826,0.95947 0.54826,2.14738 0,1.18792 -0.51781,2.16262 -0.50258,0.95947 -1.40113,1.50774 -0.88332,0.54827 -1.97986,0.54827 -0.88332,0 -1.64481,-0.36551 -0.76148,-0.36551 -1.29452,-1.02039 v 4.11202 q 0,0.35028 -0.21322,0.5635 -0.21321,0.21321 -0.5635,0.21321 -0.33505,0 -0.56349,-0.21321 -0.21322,-0.21322 -0.21322,-0.5635 v -6.94475 q 0,-1.18791 0.54827,-2.14738 0.5635,-0.9747 1.50774,-1.52297 0.95947,-0.5635 2.13216,-0.5635 z m 0,7.08181 q 0.76148,0 1.37067,-0.36551 0.62442,-0.38075 0.9747,-1.02039 0.36551,-0.65488 0.36551,-1.46206 0,-0.80717 -0.36551,-1.46205 -0.35028,-0.65487 -0.9747,-1.02039 -0.60919,-0.38074 -1.37067,-0.38074 -0.76149,0 -1.38591,0.38074 -0.60918,0.36552 -0.95947,1.02039 -0.35028,0.65488 -0.35028,1.46205 0,0.80718 0.35028,1.46206 0.35029,0.63964 0.95947,1.02039 0.62442,0.36551 1.38591,0.36551 z"
         id="path61037" />
      <path
         d="m 924.46523,-352.67785 q 1.05085,0 1.88848,0.45689 0.83764,0.45689 1.30976,1.34021 0.47212,0.8681 0.47212,2.1017 v 3.74651 q 0,0.33505 -0.22845,0.5635 -0.21321,0.21321 -0.54827,0.21321 -0.33505,0 -0.56349,-0.21321 -0.21322,-0.22845 -0.21322,-0.5635 v -3.74651 q 0,-1.2336 -0.67011,-1.85802 -0.65487,-0.63965 -1.75141,-0.63965 -0.63965,0 -1.17269,0.25891 -0.51781,0.2589 -0.8224,0.70056 -0.28937,0.44166 -0.28937,0.98993 v 4.29478 q 0,0.33505 -0.21321,0.5635 -0.21322,0.21321 -0.5635,0.21321 -0.33506,0 -0.5635,-0.21321 -0.21322,-0.22845 -0.21322,-0.5635 v -10.3562 q 0,-0.35028 0.21322,-0.5635 0.22844,-0.21321 0.5635,-0.21321 0.35028,0 0.5635,0.21321 0.21321,0.21322 0.21321,0.5635 v 3.73128 q 0.48735,-0.48735 1.15746,-0.74626 0.67011,-0.27413 1.43159,-0.27413 z"
         id="path61039" />
      <path
         d="m 943.06067,-345.48943 q 0.15229,0.24367 0.15229,0.50258 0,0.30459 -0.21321,0.51781 -0.19799,0.19798 -0.54827,0.19798 -0.44166,0 -0.68534,-0.38074 l -2.61951,-4.2034 h -0.27413 -1.9494 v 3.7922 q 0,0.33505 -0.22845,0.5635 -0.21321,0.22844 -0.5635,0.22844 -0.33505,0 -0.5635,-0.22844 -0.22844,-0.22845 -0.22844,-0.5635 v -10.31051 q 0,-0.35028 0.22844,-0.5635 0.22845,-0.22844 0.5635,-0.22844 h 2.74135 q 1.127,0 2.01032,0.47212 0.89855,0.47212 1.3859,1.32498 0.50258,0.85286 0.50258,1.9494 0,1.08131 -0.54827,1.91895 -0.54827,0.83763 -1.49251,1.26406 z m -4.18817,-4.82782 q 1.03562,0 1.70573,-0.57873 0.6701,-0.59395 0.6701,-1.52297 0,-1.00516 -0.6701,-1.6448 -0.67011,-0.63965 -1.70573,-0.63965 h -1.9494 v 4.38615 z"
         id="path61041" />
      <path
         d="m 951.68067,-352.61693 q 0.35029,0 0.5635,0.21321 0.21322,0.21322 0.21322,0.5635 v 6.79245 q 0,0.33505 -0.21322,0.5635 -0.21321,0.21321 -0.5635,0.21321 -0.33505,0 -0.56349,-0.21321 -0.21322,-0.22845 -0.21322,-0.5635 v -0.16753 q -0.48735,0.48735 -1.15746,0.76149 -0.6701,0.2589 -1.43159,0.2589 -1.05085,0 -1.88848,-0.45689 -0.83764,-0.45689 -1.30976,-1.32498 -0.47212,-0.88333 -0.47212,-2.11693 v -3.74651 q 0,-0.33505 0.21322,-0.54827 0.22844,-0.22844 0.5635,-0.22844 0.33505,0 0.54827,0.22844 0.22844,0.21322 0.22844,0.54827 v 3.74651 q 0,1.2336 0.65488,1.87325 0.67011,0.62442 1.76664,0.62442 0.63965,0 1.15746,-0.25891 0.53304,-0.2589 0.82241,-0.70056 0.30459,-0.44166 0.30459,-0.98993 v -4.29478 q 0,-0.35028 0.21322,-0.5635 0.22844,-0.21321 0.56349,-0.21321 z"
         id="path61043" />
      <path
         d="m 957.17858,-344.27106 q -0.65487,0 -1.18791,-0.35028 -0.51781,-0.36551 -0.80718,-1.00516 -0.28936,-0.65488 -0.28936,-1.46205 v -8.31542 q 0,-0.33505 0.21321,-0.54827 0.21322,-0.21321 0.54827,-0.21321 0.33506,0 0.54827,0.21321 0.21322,0.21322 0.21322,0.54827 v 8.31542 q 0,0.5635 0.21321,0.92901 0.21322,0.36551 0.54827,0.36551 h 0.38075 q 0.30459,0 0.48735,0.21322 0.19798,0.21321 0.19798,0.54827 0,0.33505 -0.28936,0.54827 -0.28937,0.21321 -0.74626,0.21321 z"
         id="path61045" />
      <path
         d="m 966.7885,-348.56583 q 0,0.28936 -0.19798,0.48735 -0.19799,0.18275 -0.50258,0.18275 h -5.78729 q 0.16753,1.06608 0.95947,1.72096 0.80718,0.65488 1.96463,0.65488 0.4569,0 0.94425,-0.16753 0.50258,-0.16753 0.8224,-0.4112 0.21322,-0.16753 0.50258,-0.16753 0.28936,0 0.45689,0.1523 0.27414,0.22844 0.27414,0.51781 0,0.27413 -0.24368,0.45689 -0.51781,0.4112 -1.29452,0.67011 -0.76149,0.2589 -1.46206,0.2589 -1.24883,0 -2.23876,-0.53304 -0.98993,-0.54827 -1.55343,-1.50774 -0.54827,-0.95947 -0.54827,-2.17785 0,-1.21837 0.51781,-2.17784 0.53304,-0.9747 1.46205,-1.50774 0.94424,-0.54827 2.13216,-0.54827 1.17269,0 2.02555,0.51781 0.85286,0.51781 1.30975,1.44682 0.45689,0.92901 0.45689,2.13216 z m -3.79219,-2.78704 q -1.11177,0 -1.81234,0.60919 -0.68533,0.60919 -0.86809,1.62958 h 5.07149 q -0.13707,-1.02039 -0.76148,-1.62958 -0.62442,-0.60919 -1.62958,-0.60919 z"
         id="path61047" />
      <path
         d="m 974.17487,-344.27106 q -0.33505,0 -0.5635,-0.22844 -0.22845,-0.22845 -0.22845,-0.5635 v -10.31051 q 0,-0.35028 0.22845,-0.5635 0.22845,-0.22844 0.5635,-0.22844 h 6.88382 q 0.35029,0 0.5635,0.21321 0.21322,0.19799 0.21322,0.53304 0,0.31983 -0.21322,0.51781 -0.21321,0.19799 -0.5635,0.19799 h -6.09188 v 3.70082 h 4.37093 q 0.33505,0 0.54827,0.21321 0.22844,0.19799 0.22844,0.51781 0,0.31982 -0.22844,0.53304 -0.21322,0.19799 -0.54827,0.19799 h -4.37093 v 3.80742 h 6.09188 q 0.35029,0 0.5635,0.19799 0.21322,0.19798 0.21322,0.51781 0,0.33505 -0.21322,0.54827 -0.21321,0.19798 -0.5635,0.19798 z"
         id="path61049" />
      <path
         d="m 988.03388,-352.67785 q 1.05085,0 1.88848,0.45689 0.83764,0.45689 1.30976,1.34021 0.47212,0.8681 0.47212,2.1017 v 3.74651 q 0,0.33505 -0.22845,0.5635 -0.21321,0.21321 -0.54827,0.21321 -0.33505,0 -0.5635,-0.21321 -0.21321,-0.22845 -0.21321,-0.5635 v -3.74651 q 0,-1.2336 -0.67011,-1.85802 -0.65488,-0.63965 -1.75141,-0.63965 -0.63965,0 -1.17269,0.25891 -0.51781,0.2589 -0.8224,0.70056 -0.28937,0.44166 -0.28937,0.98993 v 4.29478 q 0,0.33505 -0.21321,0.5635 -0.21322,0.21321 -0.5635,0.21321 -0.33506,0 -0.5635,-0.21321 -0.21322,-0.22845 -0.21322,-0.5635 v -6.79245 q 0,-0.35028 0.21322,-0.5635 0.22844,-0.21321 0.5635,-0.21321 0.35028,0 0.5635,0.21321 0.21321,0.21322 0.21321,0.5635 v 0.16753 q 0.48735,-0.48735 1.15746,-0.74626 0.67011,-0.27413 1.43159,-0.27413 z"
         id="path61051" />
      <path
         d="m 998.05501,-352.66262 q 1.20315,0 2.14739,0.54827 0.9595,0.53304 1.4925,1.49251 0.5483,0.95947 0.5483,2.19307 v 3.28962 q 0,1.20315 -0.5331,2.19308 -0.533,0.98993 -1.5077,1.55343 -0.95947,0.57872 -2.17785,0.57872 -1.09654,0 -2.04078,-0.44166 -0.94424,-0.42643 -1.58389,-1.2336 -0.16752,-0.21322 -0.16752,-0.42643 0,-0.31983 0.31982,-0.54827 0.21321,-0.13707 0.42643,-0.13707 0.38074,0 0.62442,0.31982 0.4112,0.53304 1.03562,0.80718 0.62442,0.28936 1.41636,0.28936 0.74626,0 1.35544,-0.36551 0.60915,-0.35028 0.97475,-1.05085 0.3655,-0.68534 0.3655,-1.64481 v -0.74625 q -0.4722,0.83763 -1.24887,1.30975 -0.77671,0.47212 -1.75141,0.47212 -1.127,0 -2.02555,-0.53304 -0.88333,-0.54827 -1.38591,-1.50774 -0.48735,-0.95947 -0.48735,-2.17785 0,-1.2336 0.53304,-2.19307 0.53304,-0.95947 1.49251,-1.49251 0.95947,-0.54827 2.17785,-0.54827 z m 0,7.08181 q 0.77671,0 1.3859,-0.36551 0.62439,-0.36552 0.95949,-1.00516 0.3503,-0.65488 0.3503,-1.47729 0,-0.8224 -0.3503,-1.47728 -0.3351,-0.65487 -0.95949,-1.02039 -0.60919,-0.36551 -1.3859,-0.36551 -0.77671,0 -1.40113,0.36551 -0.60919,0.36552 -0.95947,1.02039 -0.35029,0.65488 -0.35029,1.47728 0,0.82241 0.35029,1.47729 0.35028,0.63964 0.95947,1.00516 0.62442,0.36551 1.40113,0.36551 z"
         id="path61053" />
      <path
         d="m 1005.4871,-344.27106 q -0.3351,0 -0.5635,-0.21321 -0.2132,-0.22845 -0.2132,-0.5635 v -6.77722 q 0,-0.35028 0.2132,-0.5635 0.2284,-0.21321 0.5635,-0.21321 0.3503,0 0.5635,0.21321 0.2132,0.21322 0.2132,0.5635 v 6.77722 q 0,0.33505 -0.2132,0.5635 -0.2132,0.21321 -0.5635,0.21321 z m 0,-9.68609 q -0.4112,0 -0.7158,-0.28936 -0.2894,-0.30459 -0.2894,-0.7158 0,-0.4112 0.2894,-0.70056 0.3046,-0.3046 0.7158,-0.3046 0.4112,0 0.7006,0.3046 0.3046,0.28936 0.3046,0.70056 0,0.41121 -0.3046,0.7158 -0.2894,0.28936 -0.7006,0.28936 z"
         id="path61055" />
      <path
         d="m 1013.2999,-352.67785 q 1.0508,0 1.8885,0.45689 0.8376,0.45689 1.3097,1.34021 0.4722,0.8681 0.4722,2.1017 v 3.74651 q 0,0.33505 -0.2285,0.5635 -0.2132,0.21321 -0.5483,0.21321 -0.335,0 -0.5635,-0.21321 -0.2132,-0.22845 -0.2132,-0.5635 v -3.74651 q 0,-1.2336 -0.6701,-1.85802 -0.6549,-0.63965 -1.7514,-0.63965 -0.6396,0 -1.1727,0.25891 -0.5178,0.2589 -0.8224,0.70056 -0.2894,0.44166 -0.2894,0.98993 v 4.29478 q 0,0.33505 -0.2132,0.5635 -0.2132,0.21321 -0.5635,0.21321 -0.335,0 -0.5635,-0.21321 -0.2132,-0.22845 -0.2132,-0.5635 v -6.79245 q 0,-0.35028 0.2132,-0.5635 0.2285,-0.21321 0.5635,-0.21321 0.3503,0 0.5635,0.21321 0.2132,0.21322 0.2132,0.5635 v 0.16753 q 0.4874,-0.48735 1.1575,-0.74626 0.6701,-0.27413 1.4316,-0.27413 z"
         id="path61057" />
      <path
         d="m 1027.0219,-348.56583 q 0,0.28936 -0.198,0.48735 -0.198,0.18275 -0.5026,0.18275 h -5.7873 q 0.1675,1.06608 0.9595,1.72096 0.8071,0.65488 1.9646,0.65488 0.4569,0 0.9442,-0.16753 0.5026,-0.16753 0.8225,-0.4112 0.2132,-0.16753 0.5025,-0.16753 0.2894,0 0.4569,0.1523 0.2742,0.22844 0.2742,0.51781 0,0.27413 -0.2437,0.45689 -0.5178,0.4112 -1.2945,0.67011 -0.7615,0.2589 -1.4621,0.2589 -1.2488,0 -2.2388,-0.53304 -0.9899,-0.54827 -1.5534,-1.50774 -0.5483,-0.95947 -0.5483,-2.17785 0,-1.21837 0.5179,-2.17784 0.533,-0.9747 1.462,-1.50774 0.9442,-0.54827 2.1322,-0.54827 1.1726,0 2.0255,0.51781 0.8529,0.51781 1.3098,1.44682 0.4569,0.92901 0.4569,2.13216 z m -3.7922,-2.78704 q -1.1118,0 -1.8124,0.60919 -0.6853,0.60919 -0.8681,1.62958 h 5.0715 q -0.137,-1.02039 -0.7615,-1.62958 -0.6244,-0.60919 -1.6295,-0.60919 z"
         id="path61059" />
    </g>
  </g>
</svg>
