<?xml version="1.0" encoding="UTF-8" standalone="no"?>
<!-- Created with Inkscape (http://www.inkscape.org/) -->

<svg
   width="83.830315mm"
   height="36.0807mm"
   viewBox="0 0 83.830315 36.080701"
   version="1.1"
   id="svg103483"
   inkscape:version="1.1.2 (0a00cf5339, 2022-02-04)"
   sodipodi:docname="nemo-logo-rusty-bright.svg"
   xmlns:inkscape="http://www.inkscape.org/namespaces/inkscape"
   xmlns:sodipodi="http://sodipodi.sourceforge.net/DTD/sodipodi-0.dtd"
   xmlns:xlink="http://www.w3.org/1999/xlink"
   xmlns="http://www.w3.org/2000/svg"
   xmlns:svg="http://www.w3.org/2000/svg">
  <sodipodi:namedview
     id="namedview103485"
     pagecolor="#626262"
     bordercolor="#666666"
     borderopacity="1.0"
     inkscape:pageshadow="2"
     inkscape:pageopacity="0"
     inkscape:pagecheckerboard="true"
     inkscape:document-units="mm"
     showgrid="false"
     fit-margin-top="0"
     fit-margin-left="0"
     fit-margin-right="0"
     fit-margin-bottom="0"
     inkscape:zoom="1.6631321"
     inkscape:cx="107.92889"
     inkscape:cy="-11.724865"
     inkscape:window-width="1917"
     inkscape:window-height="1126"
     inkscape:window-x="0"
     inkscape:window-y="0"
     inkscape:window-maximized="1"
     inkscape:current-layer="layer1" />
  <defs
     id="defs103480">
    <linearGradient
       inkscape:collect="always"
       xlink:href="#linearGradient303448"
       id="linearGradient213979"
       gradientUnits="userSpaceOnUse"
       x1="1272.3186"
       y1="-388.23669"
       x2="1248.5779"
       y2="-446.44077" />
    <linearGradient
       inkscape:collect="always"
       id="linearGradient303448">
      <stop
         style="stop-color:#d2e3e7;stop-opacity:1"
         offset="0"
         id="stop303444" />
      <stop
         style="stop-color:#9c8b30;stop-opacity:1"
         offset="1"
         id="stop303446" />
    </linearGradient>
    <linearGradient
       inkscape:collect="always"
       xlink:href="#linearGradient267755"
       id="linearGradient313429"
       gradientUnits="userSpaceOnUse"
       gradientTransform="matrix(0.26458333,0,0,0.26458333,-437.45185,16.39619)"
       x1="1806.8732"
       y1="329.75214"
       x2="1901.7275"
       y2="228.38689" />
    <linearGradient
       inkscape:collect="always"
       id="linearGradient267755">
      <stop
         style="stop-color:#18434e;stop-opacity:1"
         offset="0"
         id="stop267747" />
      <stop
         style="stop-color:#d2e3e7;stop-opacity:1"
         offset="0.61675489"
         id="stop267751" />
      <stop
         style="stop-color:#9c8b30;stop-opacity:1"
         offset="1"
         id="stop267753" />
    </linearGradient>
    <linearGradient
       inkscape:collect="always"
       xlink:href="#linearGradient303448"
       id="linearGradient314839"
       gradientUnits="userSpaceOnUse"
       x1="1272.3186"
       y1="-388.23669"
       x2="1248.5779"
       y2="-446.44077" />
    <linearGradient
       inkscape:collect="always"
       xlink:href="#linearGradient303448"
       id="linearGradient314841"
       gradientUnits="userSpaceOnUse"
       x1="1272.3186"
       y1="-388.23669"
       x2="1248.5779"
       y2="-446.44077" />
    <linearGradient
       inkscape:collect="always"
       xlink:href="#linearGradient303448"
       id="linearGradient314843"
       gradientUnits="userSpaceOnUse"
       x1="1272.3186"
       y1="-388.23669"
       x2="1248.5779"
       y2="-446.44077" />
    <linearGradient
       inkscape:collect="always"
       xlink:href="#linearGradient303448"
       id="linearGradient314845"
       gradientUnits="userSpaceOnUse"
       x1="1272.3186"
       y1="-388.23669"
       x2="1248.5779"
       y2="-446.44077" />
  </defs>
  <g
     inkscape:label="Layer 1"
     inkscape:groupmode="layer"
     id="layer1"
     transform="translate(-34.255409,-71.576805)">
    <g
       aria-label="Nemo"
       id="g105466"
       style="font-weight:bold;font-size:49.882px;line-height:1.25;font-family:Comfortaa;-inkscape-font-specification:'Comfortaa, Bold';letter-spacing:0px;word-spacing:0px;fill:url(#linearGradient213979);fill-opacity:1"
       transform="matrix(0.26458333,0,0,0.26458333,-257.20708,187.71387)">
      <path
         d="m 1239.2298,-364.63898 q -1.0974,0 -1.8456,-0.69835 -0.6984,-0.74823 -0.6984,-1.89551 v -33.77012 q 0,-1.14728 0.6984,-1.84563 0.7482,-0.74823 1.8456,-0.74823 0.5487,0 1.0974,0.29929 0.5487,0.24941 0.8979,0.64847 l 21.7485,28.93156 v -27.28546 q 0,-1.14728 0.7483,-1.84563 0.7482,-0.74823 1.8456,-0.74823 1.0974,0 1.7958,0.74823 0.7482,0.69835 0.7482,1.84563 v 33.77012 q 0,1.14728 -0.7482,1.89551 -0.6984,0.69835 -1.7958,0.69835 -0.5487,0 -1.1473,-0.19953 -0.5487,-0.24941 -0.848,-0.69834 l -21.7485,-28.93156 v 27.23557 q 0,1.0974 -0.7483,1.84563 -0.6983,0.74823 -1.8456,0.74823 z"
         id="path105458"
         style="fill:url(#linearGradient314839);fill-opacity:1" />
      <path
         d="m 1302.0811,-378.7057 q 0,0.94776 -0.6484,1.59622 -0.6485,0.59859 -1.6461,0.59859 h -18.9552 q 0.5487,3.49174 3.1426,5.63666 2.6437,2.14493 6.4347,2.14493 1.4965,0 3.0927,-0.5487 1.6461,-0.54871 2.6937,-1.34682 0.6983,-0.5487 1.6461,-0.5487 0.9477,0 1.4964,0.49882 0.8979,0.74823 0.8979,1.69599 0,0.89787 -0.7981,1.49646 -1.696,1.34681 -4.24,2.19481 -2.4941,0.84799 -4.7887,0.84799 -4.0903,0 -7.3326,-1.74587 -3.2423,-1.79575 -5.088,-4.93832 -1.7957,-3.14256 -1.7957,-7.13312 0,-3.99056 1.696,-7.13313 1.7458,-3.19245 4.7886,-4.93832 3.0927,-1.79575 6.9835,-1.79575 3.8409,0 6.6343,1.69599 2.7934,1.69599 4.2899,4.73879 1.4964,3.0428 1.4964,6.98348 z m -12.4206,-9.12841 q -3.6414,0 -5.9359,1.99528 -2.2447,1.99528 -2.8433,5.33738 h 16.6107 q -0.449,-3.3421 -2.4941,-5.33738 -2.0452,-1.99528 -5.3374,-1.99528 z"
         id="path105460"
         style="fill:url(#linearGradient314841);fill-opacity:1" />
      <path
         d="m 1337.2479,-392.17384 q 4.3397,0 6.9834,2.84327 2.6937,2.84328 2.6937,7.93124 v 14.26625 q 0,1.09741 -0.6984,1.84564 -0.6983,0.69834 -1.8456,0.69834 -1.0974,0 -1.8456,-0.69834 -0.6984,-0.74823 -0.6984,-1.84564 v -14.26625 q 0,-3.0428 -1.5463,-4.58914 -1.4965,-1.59623 -4.0405,-1.59623 -2.5938,0 -4.2898,1.79575 -1.6461,1.79576 -1.6461,4.58915 v 14.06672 q 0,1.09741 -0.6984,1.84564 -0.6983,0.69834 -1.8456,0.69834 -1.0974,0 -1.8457,-0.69834 -0.6983,-0.74823 -0.6983,-1.84564 v -14.26625 q 0,-3.0428 -1.5463,-4.58914 -1.4965,-1.59623 -4.0405,-1.59623 -2.6437,0 -4.3397,1.79575 -1.6461,1.79576 -1.6461,4.58915 v 14.06672 q 0,1.09741 -0.6984,1.84564 -0.6983,0.69834 -1.8456,0.69834 -1.0974,0 -1.8456,-0.69834 -0.6984,-0.74823 -0.6984,-1.84564 v -22.19749 q 0,-1.14728 0.6984,-1.84563 0.7482,-0.69835 1.8456,-0.69835 1.0974,0 1.7957,0.69835 0.6984,0.64846 0.7483,1.74587 1.2969,-1.29693 3.0927,-1.99528 1.7957,-0.74823 3.8908,-0.74823 2.5439,0 4.5392,1.04752 2.0452,0.99764 3.3421,2.89316 1.4965,-1.84564 3.7412,-2.89316 2.2447,-1.04752 4.9882,-1.04752 z"
         id="path105462"
         style="fill:url(#linearGradient314843);fill-opacity:1" />
      <path
         d="m 1367.7257,-364.43945 q -3.9905,0 -7.1331,-1.74587 -3.1425,-1.79575 -4.8884,-4.93832 -1.7459,-3.14256 -1.7459,-7.13312 0,-4.04045 1.7459,-7.18301 1.7459,-3.14257 4.8884,-4.88844 3.1426,-1.79575 7.1331,-1.79575 3.9407,0 7.0334,1.79575 3.1426,1.74587 4.8884,4.88844 1.7958,3.14256 1.7958,7.18301 0,3.99056 -1.7459,7.13312 -1.7458,3.14257 -4.8884,4.93832 -3.0927,1.74587 -7.0833,1.74587 z m 0,-4.48938 q 2.544,0 4.5393,-1.19717 2.0452,-1.19717 3.1426,-3.29221 1.1473,-2.14493 1.1473,-4.83855 0,-2.69363 -1.1473,-4.83856 -1.0974,-2.14492 -3.1426,-3.34209 -1.9953,-1.19717 -4.5393,-1.19717 -2.5439,0 -4.5891,1.19717 -1.9953,1.19717 -3.1426,3.34209 -1.1472,2.14493 -1.1472,4.83856 0,2.69362 1.1472,4.83855 1.1473,2.09504 3.1426,3.29221 2.0452,1.19717 4.5891,1.19717 z"
         id="path105464"
         style="fill:url(#linearGradient314845);fill-opacity:1" />
    </g>
    <g
       aria-label="Graph Rule Engine"
       id="g105498"
       style="font-weight:bold;font-size:15.2297px;line-height:1.25;font-family:Comfortaa;-inkscape-font-specification:'Comfortaa, Bold';letter-spacing:0px;word-spacing:0px;fill:#d2e3e7;fill-opacity:1;stroke-width:0.999996"
       transform="matrix(0.26458333,0,0,0.26458333,-257.20708,187.71387)">
      <path
         d="m 1244.1084,-347.68878 q 0.335,0 0.5482,0.22845 0.2285,0.21321 0.2285,0.56349 v 3.6399 q 0,0.36552 -0.2437,0.5635 -1.5991,1.32499 -3.7313,1.32499 -1.6296,0 -2.985,-0.80718 -1.3402,-0.80717 -2.1169,-2.20831 -0.7767,-1.40113 -0.7767,-3.09162 0,-1.67527 0.7767,-3.06117 0.7767,-1.40114 2.1169,-2.20831 1.3554,-0.8224 2.985,-0.8224 1.1575,0 1.9951,0.30459 0.8529,0.30459 1.721,1.00516 0.1827,0.13707 0.2436,0.28936 0.061,0.13707 0.061,0.33506 0,0.30459 -0.2285,0.50258 -0.2132,0.19798 -0.5178,0.19798 -0.2741,0 -0.5178,-0.19798 -0.6244,-0.53304 -1.2184,-0.76149 -0.5939,-0.24367 -1.5382,-0.24367 -1.1879,0 -2.193,0.62441 -0.99,0.62442 -1.5839,1.70573 -0.5788,1.06608 -0.5788,2.33015 0,1.27929 0.5788,2.34537 0.5939,1.06608 1.5839,1.6905 1.0051,0.62441 2.193,0.62441 1.2793,0 2.452,-0.76148 v -2.71089 h -2.1017 q -0.3503,0 -0.5787,-0.19798 -0.2132,-0.19799 -0.2132,-0.50258 0,-0.3046 0.2132,-0.50258 0.2284,-0.19799 0.5787,-0.19799 z"
         id="path105468"
         style="fill:#d2e3e7;fill-opacity:1" />
      <path
         d="m 1251.3424,-349.94278 q 0.8072,0 1.2641,0.24368 0.4569,0.24367 0.4569,0.60919 0,0.10661 -0.015,0.15229 -0.1371,0.48735 -0.6092,0.48735 -0.076,0 -0.2285,-0.0305 -0.6091,-0.10661 -0.9899,-0.10661 -1.0965,0 -1.7666,0.50258 -0.6701,0.50258 -0.6701,1.35544 v 4.44707 q 0,0.36552 -0.198,0.5635 -0.1828,0.19799 -0.5635,0.19799 -0.3655,0 -0.5635,-0.18276 -0.198,-0.19798 -0.198,-0.57873 v -6.80767 q 0,-0.36552 0.198,-0.5635 0.198,-0.19799 0.5635,-0.19799 0.7615,0 0.7615,0.76149 v 0.28936 q 0.4569,-0.53304 1.127,-0.83763 0.6701,-0.3046 1.4315,-0.3046 z"
         id="path105470"
         style="fill:#d2e3e7;fill-opacity:1" />
      <path
         d="m 1257.8303,-349.91232 q 1.1726,0 2.1169,0.5635 0.9595,0.54827 1.5077,1.52297 0.5635,0.95947 0.5635,2.14739 v 3.39622 q 0,0.33506 -0.2284,0.5635 -0.2132,0.21322 -0.5483,0.21322 -0.335,0 -0.5635,-0.21322 -0.2132,-0.22844 -0.2132,-0.5635 v -0.5635 q -0.533,0.65488 -1.2945,1.02039 -0.7615,0.36552 -1.6448,0.36552 -1.0966,0 -1.9951,-0.54827 -0.8833,-0.54827 -1.4012,-1.50774 -0.5025,-0.9747 -0.5025,-2.16262 0,-1.18792 0.5482,-2.14739 0.5483,-0.9747 1.5078,-1.52297 0.9747,-0.5635 2.1474,-0.5635 z m 0,7.08181 q 0.7614,0 1.3706,-0.36551 0.6245,-0.38074 0.9747,-1.02039 0.3503,-0.65488 0.3503,-1.46205 0,-0.80717 -0.3503,-1.46205 -0.3502,-0.65488 -0.9747,-1.02039 -0.6092,-0.38074 -1.3706,-0.38074 -0.7615,0 -1.3859,0.38074 -0.6092,0.36551 -0.9747,1.02039 -0.3503,0.65488 -0.3503,1.46205 0,0.80717 0.3503,1.46205 0.3655,0.63965 0.9747,1.02039 0.6244,0.36551 1.3859,0.36551 z"
         id="path105472"
         style="fill:#d2e3e7;fill-opacity:1" />
      <path
         d="m 1268.5215,-349.91232 q 1.1727,0 2.1322,0.5635 0.9747,0.54827 1.5229,1.52297 0.5483,0.95947 0.5483,2.14739 0,1.18792 -0.5178,2.16262 -0.5026,0.95947 -1.4011,1.50774 -0.8834,0.54827 -1.9799,0.54827 -0.8833,0 -1.6448,-0.36552 -0.7615,-0.36551 -1.2945,-1.02039 v 4.11202 q 0,0.35029 -0.2133,0.5635 -0.2132,0.21322 -0.5635,0.21322 -0.335,0 -0.5635,-0.21322 -0.2132,-0.21321 -0.2132,-0.5635 v -6.94474 q 0,-1.18792 0.5483,-2.14739 0.5635,-0.9747 1.5077,-1.52297 0.9595,-0.5635 2.1322,-0.5635 z m 0,7.08181 q 0.7615,0 1.3707,-0.36551 0.6244,-0.38074 0.9747,-1.02039 0.3655,-0.65488 0.3655,-1.46205 0,-0.80717 -0.3655,-1.46205 -0.3503,-0.65488 -0.9747,-1.02039 -0.6092,-0.38074 -1.3707,-0.38074 -0.7615,0 -1.3859,0.38074 -0.6092,0.36551 -0.9595,1.02039 -0.3503,0.65488 -0.3503,1.46205 0,0.80717 0.3503,1.46205 0.3503,0.63965 0.9595,1.02039 0.6244,0.36551 1.3859,0.36551 z"
         id="path105474"
         style="fill:#d2e3e7;fill-opacity:1" />
      <path
         d="m 1279.1823,-349.92755 q 1.0508,0 1.8885,0.45689 0.8376,0.4569 1.3097,1.34022 0.4721,0.86809 0.4721,2.1017 v 3.7465 q 0,0.33506 -0.2284,0.5635 -0.2132,0.21322 -0.5483,0.21322 -0.335,0 -0.5635,-0.21322 -0.2132,-0.22844 -0.2132,-0.5635 v -3.7465 q 0,-1.23361 -0.6701,-1.85803 -0.6549,-0.63964 -1.7514,-0.63964 -0.6397,0 -1.1727,0.2589 -0.5178,0.25891 -0.8224,0.70057 -0.2894,0.44166 -0.2894,0.98993 v 4.29477 q 0,0.33506 -0.2132,0.5635 -0.2132,0.21322 -0.5635,0.21322 -0.335,0 -0.5635,-0.21322 -0.2132,-0.22844 -0.2132,-0.5635 v -10.35619 q 0,-0.35029 0.2132,-0.5635 0.2285,-0.21322 0.5635,-0.21322 0.3503,0 0.5635,0.21322 0.2132,0.21321 0.2132,0.5635 v 3.73127 q 0.4874,-0.48735 1.1575,-0.74625 0.6701,-0.27414 1.4316,-0.27414 z"
         id="path105476"
         style="fill:#d2e3e7;fill-opacity:1" />
      <path
         d="m 1297.7777,-342.73913 q 0.1523,0.24368 0.1523,0.50258 0,0.3046 -0.2132,0.51781 -0.198,0.19799 -0.5483,0.19799 -0.4416,0 -0.6853,-0.38074 l -2.6195,-4.2034 h -0.2742 -1.9494 v 3.79219 q 0,0.33506 -0.2284,0.5635 -0.2132,0.22845 -0.5635,0.22845 -0.3351,0 -0.5635,-0.22845 -0.2285,-0.22844 -0.2285,-0.5635 v -10.3105 q 0,-0.35029 0.2285,-0.5635 0.2284,-0.22845 0.5635,-0.22845 h 2.7413 q 1.127,0 2.0104,0.47212 0.8985,0.47212 1.3859,1.32499 0.5025,0.85286 0.5025,1.9494 0,1.08131 -0.5482,1.91894 -0.5483,0.83763 -1.4925,1.26407 z m -4.1882,-4.82781 q 1.0357,0 1.7058,-0.57873 0.6701,-0.59396 0.6701,-1.52297 0,-1.00516 -0.6701,-1.64481 -0.6701,-0.63965 -1.7058,-0.63965 h -1.9494 v 4.38616 z"
         id="path105478"
         style="fill:#d2e3e7;fill-opacity:1" />
      <path
         d="m 1306.3977,-349.86663 q 0.3503,0 0.5635,0.21322 0.2132,0.21321 0.2132,0.5635 v 6.79244 q 0,0.33506 -0.2132,0.5635 -0.2132,0.21322 -0.5635,0.21322 -0.335,0 -0.5635,-0.21322 -0.2132,-0.22844 -0.2132,-0.5635 v -0.16752 q -0.4874,0.48735 -1.1575,0.76148 -0.6701,0.25891 -1.4315,0.25891 -1.0509,0 -1.8885,-0.45689 -0.8377,-0.4569 -1.3098,-1.32499 -0.4721,-0.88332 -0.4721,-2.11693 v -3.7465 q 0,-0.33506 0.2132,-0.54827 0.2285,-0.22845 0.5635,-0.22845 0.3351,0 0.5483,0.22845 0.2284,0.21321 0.2284,0.54827 v 3.7465 q 0,1.23361 0.6549,1.87326 0.6701,0.62441 1.7666,0.62441 0.6397,0 1.1575,-0.2589 0.533,-0.25891 0.8224,-0.70057 0.3046,-0.44166 0.3046,-0.98993 v -4.29477 q 0,-0.35029 0.2132,-0.5635 0.2285,-0.21322 0.5635,-0.21322 z"
         id="path105480"
         style="fill:#d2e3e7;fill-opacity:1" />
      <path
         d="m 1311.8956,-341.52075 q -0.6549,0 -1.1879,-0.35029 -0.5178,-0.36551 -0.8072,-1.00516 -0.2893,-0.65487 -0.2893,-1.46205 v -8.31541 q 0,-0.33506 0.2132,-0.54827 0.2132,-0.21322 0.5483,-0.21322 0.335,0 0.5482,0.21322 0.2132,0.21321 0.2132,0.54827 v 8.31541 q 0,0.5635 0.2133,0.92902 0.2132,0.36551 0.5482,0.36551 h 0.3808 q 0.3046,0 0.4873,0.21321 0.198,0.21322 0.198,0.54827 0,0.33506 -0.2894,0.54827 -0.2893,0.21322 -0.7462,0.21322 z"
         id="path105482"
         style="fill:#d2e3e7;fill-opacity:1" />
      <path
         d="m 1321.5055,-345.81553 q 0,0.28937 -0.1979,0.48735 -0.198,0.18276 -0.5026,0.18276 h -5.7873 q 0.1675,1.06608 0.9595,1.72096 0.8071,0.65487 1.9646,0.65487 0.4569,0 0.9442,-0.16752 0.5026,-0.16753 0.8224,-0.41121 0.2133,-0.16752 0.5026,-0.16752 0.2894,0 0.4569,0.15229 0.2741,0.22845 0.2741,0.51781 0,0.27414 -0.2436,0.4569 -0.5178,0.4112 -1.2946,0.6701 -0.7614,0.25891 -1.462,0.25891 -1.2488,0 -2.2388,-0.53304 -0.9899,-0.54827 -1.5534,-1.50774 -0.5483,-0.95947 -0.5483,-2.17785 0,-1.21838 0.5178,-2.17785 0.5331,-0.9747 1.4621,-1.50774 0.9442,-0.54827 2.1321,-0.54827 1.1727,0 2.0256,0.51781 0.8529,0.51781 1.3098,1.44682 0.4568,0.92902 0.4568,2.13216 z m -3.7922,-2.78703 q -1.1117,0 -1.8123,0.60919 -0.6853,0.60918 -0.8681,1.62957 h 5.0715 q -0.1371,-1.02039 -0.7615,-1.62957 -0.6244,-0.60919 -1.6296,-0.60919 z"
         id="path105484"
         style="fill:#d2e3e7;fill-opacity:1" />
      <path
         d="m 1328.8919,-341.52075 q -0.335,0 -0.5635,-0.22845 -0.2284,-0.22844 -0.2284,-0.5635 v -10.3105 q 0,-0.35029 0.2284,-0.5635 0.2285,-0.22845 0.5635,-0.22845 h 6.8838 q 0.3503,0 0.5635,0.21322 0.2132,0.19798 0.2132,0.53304 0,0.31982 -0.2132,0.51781 -0.2132,0.19798 -0.5635,0.19798 h -6.0918 v 3.70082 h 4.3709 q 0.335,0 0.5482,0.21322 0.2285,0.19798 0.2285,0.51781 0,0.31982 -0.2285,0.53304 -0.2132,0.19798 -0.5482,0.19798 h -4.3709 v 3.80743 h 6.0918 q 0.3503,0 0.5635,0.19798 0.2132,0.19799 0.2132,0.51781 0,0.33506 -0.2132,0.54827 -0.2132,0.19799 -0.5635,0.19799 z"
         id="path105486"
         style="fill:#d2e3e7;fill-opacity:1" />
      <path
         d="m 1342.7509,-349.92755 q 1.0509,0 1.8885,0.45689 0.8376,0.4569 1.3098,1.34022 0.4721,0.86809 0.4721,2.1017 v 3.7465 q 0,0.33506 -0.2285,0.5635 -0.2132,0.21322 -0.5482,0.21322 -0.3351,0 -0.5635,-0.21322 -0.2133,-0.22844 -0.2133,-0.5635 v -3.7465 q 0,-1.23361 -0.6701,-1.85803 -0.6548,-0.63964 -1.7514,-0.63964 -0.6396,0 -1.1727,0.2589 -0.5178,0.25891 -0.8224,0.70057 -0.2893,0.44166 -0.2893,0.98993 v 4.29477 q 0,0.33506 -0.2132,0.5635 -0.2133,0.21322 -0.5635,0.21322 -0.3351,0 -0.5635,-0.21322 -0.2133,-0.22844 -0.2133,-0.5635 v -6.79244 q 0,-0.35029 0.2133,-0.5635 0.2284,-0.21322 0.5635,-0.21322 0.3502,0 0.5635,0.21322 0.2132,0.21321 0.2132,0.5635 v 0.16752 q 0.4873,-0.48735 1.1574,-0.74625 0.6701,-0.27414 1.4316,-0.27414 z"
         id="path105488"
         style="fill:#d2e3e7;fill-opacity:1" />
      <path
         d="m 1352.7721,-349.91232 q 1.2031,0 2.1473,0.54827 0.9595,0.53304 1.4925,1.49251 0.5483,0.95947 0.5483,2.19308 v 3.28962 q 0,1.20314 -0.533,2.19307 -0.5331,0.98993 -1.5078,1.55343 -0.9594,0.57873 -2.1778,0.57873 -1.0965,0 -2.0408,-0.44166 -0.9442,-0.42643 -1.5839,-1.23361 -0.1675,-0.21321 -0.1675,-0.42643 0,-0.31982 0.3198,-0.54827 0.2132,-0.13707 0.4265,-0.13707 0.3807,0 0.6244,0.31983 0.4112,0.53304 1.0356,0.80717 0.6244,0.28937 1.4164,0.28937 0.7462,0 1.3554,-0.36552 0.6092,-0.35028 0.9747,-1.05085 0.3655,-0.68533 0.3655,-1.6448 v -0.74626 q -0.4721,0.83764 -1.2488,1.30976 -0.7767,0.47212 -1.7514,0.47212 -1.127,0 -2.0256,-0.53304 -0.8833,-0.54827 -1.3859,-1.50774 -0.4873,-0.95947 -0.4873,-2.17785 0,-1.23361 0.533,-2.19308 0.533,-0.95947 1.4925,-1.49251 0.9595,-0.54827 2.1779,-0.54827 z m 0,7.08181 q 0.7767,0 1.3859,-0.36551 0.6244,-0.36551 0.9594,-1.00516 0.3503,-0.65488 0.3503,-1.47728 0,-0.8224 -0.3503,-1.47728 -0.335,-0.65488 -0.9594,-1.02039 -0.6092,-0.36551 -1.3859,-0.36551 -0.7768,0 -1.4012,0.36551 -0.6092,0.36551 -0.9595,1.02039 -0.3502,0.65488 -0.3502,1.47728 0,0.8224 0.3502,1.47728 0.3503,0.63965 0.9595,1.00516 0.6244,0.36551 1.4012,0.36551 z"
         id="path105490"
         style="fill:#d2e3e7;fill-opacity:1" />
      <path
         d="m 1360.2041,-341.52075 q -0.335,0 -0.5635,-0.21322 -0.2132,-0.22844 -0.2132,-0.5635 v -6.77721 q 0,-0.35029 0.2132,-0.5635 0.2285,-0.21322 0.5635,-0.21322 0.3503,0 0.5635,0.21322 0.2132,0.21321 0.2132,0.5635 v 6.77721 q 0,0.33506 -0.2132,0.5635 -0.2132,0.21322 -0.5635,0.21322 z m 0,-9.68609 q -0.4112,0 -0.7158,-0.28937 -0.2893,-0.30459 -0.2893,-0.71579 0,-0.4112 0.2893,-0.70057 0.3046,-0.30459 0.7158,-0.30459 0.4112,0 0.7006,0.30459 0.3046,0.28937 0.3046,0.70057 0,0.4112 -0.3046,0.71579 -0.2894,0.28937 -0.7006,0.28937 z"
         id="path105492"
         style="fill:#d2e3e7;fill-opacity:1" />
      <path
         d="m 1368.0169,-349.92755 q 1.0509,0 1.8885,0.45689 0.8377,0.4569 1.3098,1.34022 0.4721,0.86809 0.4721,2.1017 v 3.7465 q 0,0.33506 -0.2285,0.5635 -0.2132,0.21322 -0.5482,0.21322 -0.3351,0 -0.5635,-0.21322 -0.2132,-0.22844 -0.2132,-0.5635 v -3.7465 q 0,-1.23361 -0.6701,-1.85803 -0.6549,-0.63964 -1.7515,-0.63964 -0.6396,0 -1.1726,0.2589 -0.5179,0.25891 -0.8224,0.70057 -0.2894,0.44166 -0.2894,0.98993 v 4.29477 q 0,0.33506 -0.2132,0.5635 -0.2132,0.21322 -0.5635,0.21322 -0.3351,0 -0.5635,-0.21322 -0.2132,-0.22844 -0.2132,-0.5635 v -6.79244 q 0,-0.35029 0.2132,-0.5635 0.2284,-0.21322 0.5635,-0.21322 0.3503,0 0.5635,0.21322 0.2132,0.21321 0.2132,0.5635 v 0.16752 q 0.4873,-0.48735 1.1574,-0.74625 0.6702,-0.27414 1.4316,-0.27414 z"
         id="path105494"
         style="fill:#d2e3e7;fill-opacity:1" />
      <path
         d="m 1381.7389,-345.81553 q 0,0.28937 -0.198,0.48735 -0.198,0.18276 -0.5026,0.18276 h -5.7873 q 0.1676,1.06608 0.9595,1.72096 0.8072,0.65487 1.9646,0.65487 0.4569,0 0.9443,-0.16752 0.5026,-0.16753 0.8224,-0.41121 0.2132,-0.16752 0.5026,-0.16752 0.2893,0 0.4569,0.15229 0.2741,0.22845 0.2741,0.51781 0,0.27414 -0.2437,0.4569 -0.5178,0.4112 -1.2945,0.6701 -0.7615,0.25891 -1.4621,0.25891 -1.2488,0 -2.2387,-0.53304 -0.9899,-0.54827 -1.5534,-1.50774 -0.5483,-0.95947 -0.5483,-2.17785 0,-1.21838 0.5178,-2.17785 0.533,-0.9747 1.462,-1.50774 0.9443,-0.54827 2.1322,-0.54827 1.1727,0 2.0256,0.51781 0.8528,0.51781 1.3097,1.44682 0.4569,0.92902 0.4569,2.13216 z m -3.7922,-2.78703 q -1.1118,0 -1.8123,0.60919 -0.6854,0.60918 -0.8681,1.62957 h 5.0715 q -0.1371,-1.02039 -0.7615,-1.62957 -0.6244,-0.60919 -1.6296,-0.60919 z"
         id="path105496"
         style="fill:#d2e3e7;fill-opacity:1" />
    </g>
    <path
       id="path313427"
       style="color:#000000;fill:url(#linearGradient313429);fill-opacity:1;stroke-width:0.264583;stroke-miterlimit:6;-inkscape-stroke:none"
       d="m 51.06773,76.856116 c -0.121074,0.01164 -0.236723,0.08271 -0.296122,0.20774 l -0.544671,1.143082 c -0.112845,0.02053 -0.225134,0.04181 -0.336921,0.06563 l -0.935857,-0.851111 c -0.204629,-0.186476 -0.5343,-0.08757 -0.602033,0.180866 l -0.312129,1.23145 c -0.104881,0.04163 -0.20918,0.08356 -0.312632,0.128157 l -1.08831,-0.654738 c -0.237094,-0.142973 -0.540968,0.01857 -0.555017,0.295071 l -0.06562,1.272791 c -0.09353,0.06043 -0.186293,0.121963 -0.278024,0.185002 l -1.198906,-0.431498 c -0.26043,-0.09397 -0.526944,0.123986 -0.486781,0.397907 l 0.183462,1.260906 c -0.08006,0.07732 -0.158855,0.155517 -0.236696,0.235127 L 42.74161,81.333364 c -0.273738,-0.04136 -0.492787,0.223901 -0.399971,0.484724 l 0.424789,1.196824 c -0.06432,0.09248 -0.126418,0.186645 -0.188119,0.28112 l -1.26918,0.06046 c -0.276569,0.01283 -0.439076,0.315751 -0.297127,0.553455 l 0.646986,1.086755 c -0.04561,0.104796 -0.08811,0.211341 -0.130731,0.317809 l -1.229386,0.305409 c -0.268738,0.06654 -0.369544,0.396073 -0.183965,0.601512 l 0.847487,0.939995 c -0.02408,0.111432 -0.04577,0.2237 -0.06667,0.336413 l -1.146175,0.54002 c -0.250587,0.117689 -0.285142,0.459988 -0.06305,0.625284 l 1.015444,0.757576 c -0.0026,0.114615 -0.0034,0.229138 -0.0026,0.343133 l -1.017508,0.751891 c -0.222832,0.164316 -0.19013,0.507007 0.05993,0.625803 l 1.143609,0.544668 c 0.02064,0.112829 0.0418,0.225653 0.06562,0.337447 l -0.851111,0.93586 c -0.186479,0.204627 -0.08758,0.534305 0.180869,0.602031 l 1.23145,0.31161 c 0.04162,0.104881 0.08356,0.209706 0.128164,0.313158 L 40.98557,95.27463 c -0.142981,0.237077 0.01852,0.540432 0.295064,0.554487 l 1.272804,0.06615 c 0.06043,0.09354 0.121973,0.186288 0.184997,0.278021 l -0.431509,1.198893 c -0.09395,0.260414 0.123481,0.526947 0.397404,0.486791 l 1.261427,-0.183967 c 0.07731,0.08007 0.155523,0.158816 0.235109,0.236678 l -0.189124,1.260387 c -0.04138,0.273741 0.22389,0.492284 0.484717,0.39946 l 1.196842,-0.424264 c 0.09247,0.06433 0.186638,0.126396 0.28112,0.188103 l 0.06046,1.269171 c 0.0127,0.27655 0.315753,0.43906 0.553455,0.29714 l 1.086749,-0.64751 c 0.104802,0.0456 0.21135,0.0886 0.317818,0.13126 l 0.305409,1.22938 c 0.06654,0.26874 0.396054,0.36903 0.601503,0.18345 l 0.939985,-0.84697 c 0.111417,0.0241 0.223706,0.0453 0.336418,0.0661 l 0.539512,1.1467 c 0.117713,0.25059 0.460481,0.28513 0.625793,0.0631 l 0.757581,-1.01596 c 0.114617,0.002 0.228626,0.004 0.342609,0.002 l 0.752422,1.01752 c 0.164306,0.22281 0.506995,0.19011 0.625792,-0.06 l 0.544672,-1.1436 c 0.112845,-0.0205 0.225663,-0.0413 0.337449,-0.0651 l 0.935858,0.85111 c 0.204629,0.18647 0.5343,0.0871 0.602033,-0.18138 l 0.3116,-1.23145 c 0.104881,-0.0416 0.209708,-0.0836 0.313161,-0.12816 l 1.08831,0.65474 c 0.237093,0.14297 0.540438,-0.0186 0.554487,-0.29507 l 0.06615,-1.272791 c 0.09353,-0.06042 0.185764,-0.121441 0.277495,-0.184483 l 1.199409,0.430979 c 0.26043,0.09397 0.526971,-0.12347 0.486807,-0.397391 l -0.183965,-1.260906 c 0.08006,-0.07732 0.15883,-0.15603 0.23667,-0.235643 l 1.260396,0.189135 c 0.273738,0.04136 0.492257,-0.223899 0.399441,-0.484725 l -0.424259,-1.196827 c 0.06432,-0.09248 0.126418,-0.186645 0.188119,-0.281119 l 1.269153,-0.05994 c 0.276569,-0.01283 0.439103,-0.31627 0.297154,-0.553972 l -0.647515,-1.086755 c 0.04561,-0.104798 0.08863,-0.211341 0.13126,-0.317809 l 1.229386,-0.305409 c 0.268737,-0.06654 0.369014,-0.396065 0.183436,-0.601514 L 63.62967,92.072809 c 0.02408,-0.111435 0.04524,-0.223708 0.06615,-0.336413 l 1.146704,-0.539504 c 0.250587,-0.117691 0.284612,-0.460502 0.06252,-0.6258 L 63.8896,89.813516 c 0.0026,-0.114612 0.0034,-0.228619 0.0026,-0.342614 l 1.017509,-0.752412 c 0.222832,-0.164319 0.190103,-0.507005 -0.05996,-0.6258 L 63.70614,87.548021 c -0.02064,-0.112829 -0.0413,-0.225655 -0.06511,-0.337447 l 0.851112,-0.935344 c 0.186478,-0.204626 0.08758,-0.534821 -0.180869,-0.602546 l -1.231424,-0.311611 c -0.04172,-0.104883 -0.08356,-0.209709 -0.128164,-0.313158 l 0.654209,-1.088305 c 0.142981,-0.237078 -0.01799,-0.540436 -0.294534,-0.55449 l -1.272805,-0.06615 c -0.06043,-0.09354 -0.121973,-0.185769 -0.184997,-0.2775 l 0.431483,-1.199412 c 0.09395,-0.260411 -0.123984,-0.526947 -0.397907,-0.486791 l -1.260898,0.183967 c -0.07731,-0.08007 -0.156052,-0.158813 -0.235638,-0.236677 l 0.189124,-1.260388 c 0.04138,-0.273743 -0.223361,-0.492284 -0.484188,-0.39946 l -1.197345,0.424265 c -0.09247,-0.06433 -0.186637,-0.126397 -0.28112,-0.188103 l -0.05995,-1.268656 c -0.0127,-0.276553 -0.316283,-0.439582 -0.553985,-0.297656 l -1.086749,0.647504 c -0.104802,-0.04564 -0.21082,-0.08863 -0.317289,-0.131257 L 56.293185,77.61994 c -0.06654,-0.268732 -0.395552,-0.36954 -0.601001,-0.183967 l -0.940012,0.846976 c -0.111416,-0.02408 -0.223678,-0.04527 -0.336391,-0.06615 L 53.87574,77.070616 c -0.05884,-0.125293 -0.17354,-0.197104 -0.294534,-0.20929 -0.120968,-0.01217 -0.248073,0.0352 -0.330729,0.146246 l -0.757582,1.015441 c -0.114617,-0.0021 -0.229155,-0.0035 -0.343138,-0.0021 l -0.751893,-1.017509 c -0.08215,-0.111408 -0.209126,-0.158908 -0.3302,-0.147277 z m 1.207161,3.358968 c 0.318267,-1.09e-4 0.639551,0.01545 0.963242,0.04806 0.804281,0.08101 1.574192,0.260602 2.299071,0.525034 -0.11774,0.120222 -0.01932,0.01868 -0.178779,0.181901 -0.556975,0.609397 -0.867172,1.404271 -0.870241,2.229837 7.9e-5,1.237359 0.677968,2.314581 1.68103,2.886647 l -0.55708,4.525306 a 3.3235169,3.3235169 0 0 0 -0.442331,0.08578 l -3.588411,-3.935677 a 3.3235169,3.3235169 0 0 0 0.320913,-1.418516 3.3235169,3.3235169 0 0 0 -3.323325,-3.323828 3.3235169,3.3235169 0 0 0 -3.323829,3.323828 3.3235169,3.3235169 0 0 0 0.972027,2.318721 l -0.630952,5.124233 c -0.422275,0.147066 -0.815261,0.375806 -1.150832,0.682646 -0.769276,0.744511 -0.434181,0.42228 -0.496094,0.484208 -0.814361,-1.567682 -1.197504,-3.383362 -1.00666,-5.278231 0.48903,-4.855252 4.558162,-8.458297 9.332251,-8.459948 z m 5.536592,1.624189 a 1.3601922,1.3601922 0 0 1 1.360143,1.360125 1.3601922,1.3601922 0 0 1 -1.360143,1.360641 1.3601922,1.3601922 0 0 1 -1.360118,-1.360641 1.3601922,1.3601922 0 0 1 1.360118,-1.360125 z M 48.57898,83.98333 a 1.3601922,1.3601922 0 0 1 1.360117,1.360125 1.3601922,1.3601922 0 0 1 -1.360117,1.360122 1.3601922,1.3601922 0 0 1 -1.360118,-1.360122 1.3601922,1.3601922 0 0 1 1.360118,-1.360125 z m 11.989964,1.153935 c 0.866298,1.5997 1.277752,3.469187 1.081087,5.421892 -0.521626,5.178935 -5.117094,8.933502 -10.296022,8.411887 -0.863045,-0.08692 -1.684946,-0.289491 -2.455677,-0.586526 0.120385,-0.122896 0.0645,-0.06432 0.229446,-0.233061 0.556948,-0.609396 0.867172,-1.404276 0.870241,-2.229839 -7.9e-5,-1.212586 -0.651589,-2.270607 -1.621604,-2.850989 l 0.547237,-4.442621 a 3.3235169,3.3235169 0 0 0 0.502814,-0.08217 l 3.616855,3.966683 a 3.3235169,3.3235169 0 0 0 -0.304906,1.37201 3.3235169,3.3235169 0 0 0 3.323325,3.323828 3.3235169,3.3235169 0 0 0 3.323828,-3.323828 3.3235169,3.3235169 0 0 0 -1.064022,-2.411224 l 0.635106,-5.160923 c 0.397007,-0.14777 0.766207,-0.369173 1.084157,-0.659911 0.818753,-0.79239 0.487442,-0.473704 0.528135,-0.515212 z M 56.06174,92.52441 a 1.3601922,1.3601922 0 0 1 1.36062,1.360125 1.3601922,1.3601922 0 0 1 -1.36062,1.360639 1.3601922,1.3601922 0 0 1 -1.360143,-1.360639 1.3601922,1.3601922 0 0 1 1.360143,-1.360125 z m -9.387046,2.037085 a 1.3601922,1.3601922 0 0 1 1.360143,1.360123 1.3601922,1.3601922 0 0 1 -1.360143,1.360641 1.3601922,1.3601922 0 0 1 -1.360117,-1.360641 1.3601922,1.3601922 0 0 1 1.360117,-1.360123 z" />
  </g>
</svg>
